<svg width="80" height="80" viewBox="0 0 80 80" fill="none" xmlns="http://www.w3.org/2000/svg">
<g clip-path="url(#clip0_2998_745)">
<path fill-rule="evenodd" clip-rule="evenodd" d="M10.4194 0H17.1453C18.2363 0 19.1206 0.884376 19.1206 1.97531V8.70123C19.1206 9.79217 18.2363 10.6765 17.1453 10.6765H10.4194C9.32847 10.6765 8.44409 9.79217 8.44409 8.70123V1.97531C8.44409 0.884376 9.32847 0 10.4194 0ZM67.7824 11.242H30.6169V9.24197H67.7824C69.4211 9.24197 70.7577 10.5786 70.7577 12.2173V49.3728H68.7577V12.2173C68.7577 11.6831 68.3165 11.242 67.7824 11.242ZM12.2293 29.6296V66.7951C12.2293 67.3292 12.6705 67.7704 13.2046 67.7704H50.37V69.7704H13.2046C11.5659 69.7704 10.2293 68.4338 10.2293 66.7951V29.6296H12.2293ZM38.5182 36.5556C37.9795 36.5556 37.5429 36.9922 37.5429 37.5309V41.4815C37.5429 42.0201 37.9795 42.4568 38.5182 42.4568H42.4688C43.0074 42.4568 43.4441 42.0201 43.4441 41.4815V37.5309C43.4441 36.9922 43.0074 36.5556 42.4688 36.5556H38.5182ZM35.5429 37.5309C35.5429 35.8876 36.875 34.5556 38.5182 34.5556H42.4688C44.112 34.5556 45.4441 35.8876 45.4441 37.5309V41.4815C45.4441 43.1247 44.112 44.4568 42.4688 44.4568H38.5182C36.875 44.4568 35.5429 43.1247 35.5429 41.4815V37.5309ZM51.1922 37.5309C51.1922 36.9922 51.6289 36.5556 52.1675 36.5556H56.1182C56.6568 36.5556 57.0935 36.9922 57.0935 37.5309V41.4815C57.0935 42.0201 56.6568 42.4568 56.1182 42.4568H52.1675C51.6289 42.4568 51.1922 42.0201 51.1922 41.4815V37.5309ZM52.1675 34.5556C50.5243 34.5556 49.1922 35.8876 49.1922 37.5309V41.4815C49.1922 43.1247 50.5243 44.4568 52.1675 44.4568H56.1182C57.7614 44.4568 59.0935 43.1247 59.0935 41.4815V37.5309C59.0935 35.8876 57.7614 34.5556 56.1182 34.5556H52.1675ZM24.8688 36.5556C24.3301 36.5556 23.8935 36.9922 23.8935 37.5309V41.4815C23.8935 42.0201 24.3301 42.4568 24.8688 42.4568H28.8194C29.3581 42.4568 29.7947 42.0201 29.7947 41.4815V37.5309C29.7947 36.9922 29.3581 36.5556 28.8194 36.5556H24.8688ZM21.8935 37.5309C21.8935 35.8876 23.2256 34.5556 24.8688 34.5556H28.8194C30.4626 34.5556 31.7947 35.8876 31.7947 37.5309V41.4815C31.7947 43.1247 30.4626 44.4568 28.8194 44.4568H24.8688C23.2256 44.4568 21.8935 43.1247 21.8935 41.4815V37.5309ZM2.96261 12.8099H24.612C25.7029 12.8099 26.5873 13.6943 26.5873 14.7852V23.6346C26.5873 24.7255 25.7029 25.6099 24.612 25.6099H2.96261C1.87168 25.6099 0.987305 24.7255 0.987305 23.6346V14.7852C0.987305 13.6943 1.87168 12.8099 2.96261 12.8099ZM70.5675 53.4025H63.8416C62.7507 53.4025 61.8663 54.2868 61.8663 55.3778V62.1037C61.8663 63.1946 62.7507 64.079 63.8416 64.079H70.5675C71.6585 64.079 72.5429 63.1946 72.5429 62.1037V55.3778C72.5429 54.2868 71.6585 53.4025 70.5675 53.4025ZM56.375 66.2123H78.0243C79.1153 66.2123 79.9996 67.0967 79.9996 68.1877V77.037C79.9996 78.128 79.1153 79.0123 78.0243 79.0123H56.375C55.284 79.0123 54.3997 78.128 54.3997 77.037V68.1877C54.3997 67.0967 55.284 66.2123 56.375 66.2123Z" fill="url(#paint0_linear_2998_745)"/>
<path fill-rule="evenodd" clip-rule="evenodd" d="M10.4194 0H17.1453C18.2363 0 19.1206 0.884376 19.1206 1.97531V8.70123C19.1206 9.79217 18.2363 10.6765 17.1453 10.6765H10.4194C9.32847 10.6765 8.44409 9.79217 8.44409 8.70123V1.97531C8.44409 0.884376 9.32847 0 10.4194 0ZM67.7824 11.242H30.6169V9.24197H67.7824C69.4211 9.24197 70.7577 10.5786 70.7577 12.2173V49.3728H68.7577V12.2173C68.7577 11.6831 68.3165 11.242 67.7824 11.242ZM12.2293 29.6296V66.7951C12.2293 67.3292 12.6705 67.7704 13.2046 67.7704H50.37V69.7704H13.2046C11.5659 69.7704 10.2293 68.4338 10.2293 66.7951V29.6296H12.2293ZM38.5182 36.5556C37.9795 36.5556 37.5429 36.9922 37.5429 37.5309V41.4815C37.5429 42.0201 37.9795 42.4568 38.5182 42.4568H42.4688C43.0074 42.4568 43.4441 42.0201 43.4441 41.4815V37.5309C43.4441 36.9922 43.0074 36.5556 42.4688 36.5556H38.5182ZM35.5429 37.5309C35.5429 35.8876 36.875 34.5556 38.5182 34.5556H42.4688C44.112 34.5556 45.4441 35.8876 45.4441 37.5309V41.4815C45.4441 43.1247 44.112 44.4568 42.4688 44.4568H38.5182C36.875 44.4568 35.5429 43.1247 35.5429 41.4815V37.5309ZM51.1922 37.5309C51.1922 36.9922 51.6289 36.5556 52.1675 36.5556H56.1182C56.6568 36.5556 57.0935 36.9922 57.0935 37.5309V41.4815C57.0935 42.0201 56.6568 42.4568 56.1182 42.4568H52.1675C51.6289 42.4568 51.1922 42.0201 51.1922 41.4815V37.5309ZM52.1675 34.5556C50.5243 34.5556 49.1922 35.8876 49.1922 37.5309V41.4815C49.1922 43.1247 50.5243 44.4568 52.1675 44.4568H56.1182C57.7614 44.4568 59.0935 43.1247 59.0935 41.4815V37.5309C59.0935 35.8876 57.7614 34.5556 56.1182 34.5556H52.1675ZM24.8688 36.5556C24.3301 36.5556 23.8935 36.9922 23.8935 37.5309V41.4815C23.8935 42.0201 24.3301 42.4568 24.8688 42.4568H28.8194C29.3581 42.4568 29.7947 42.0201 29.7947 41.4815V37.5309C29.7947 36.9922 29.3581 36.5556 28.8194 36.5556H24.8688ZM21.8935 37.5309C21.8935 35.8876 23.2256 34.5556 24.8688 34.5556H28.8194C30.4626 34.5556 31.7947 35.8876 31.7947 37.5309V41.4815C31.7947 43.1247 30.4626 44.4568 28.8194 44.4568H24.8688C23.2256 44.4568 21.8935 43.1247 21.8935 41.4815V37.5309ZM2.96261 12.8099H24.612C25.7029 12.8099 26.5873 13.6943 26.5873 14.7852V23.6346C26.5873 24.7255 25.7029 25.6099 24.612 25.6099H2.96261C1.87168 25.6099 0.987305 24.7255 0.987305 23.6346V14.7852C0.987305 13.6943 1.87168 12.8099 2.96261 12.8099ZM70.5675 53.4025H63.8416C62.7507 53.4025 61.8663 54.2868 61.8663 55.3778V62.1037C61.8663 63.1946 62.7507 64.079 63.8416 64.079H70.5675C71.6585 64.079 72.5429 63.1946 72.5429 62.1037V55.3778C72.5429 54.2868 71.6585 53.4025 70.5675 53.4025ZM56.375 66.2123H78.0243C79.1153 66.2123 79.9996 67.0967 79.9996 68.1877V77.037C79.9996 78.128 79.1153 79.0123 78.0243 79.0123H56.375C55.284 79.0123 54.3997 78.128 54.3997 77.037V68.1877C54.3997 67.0967 55.284 66.2123 56.375 66.2123Z" fill="#54375F" fill-opacity="0.25"/>
</g>
<defs>
<linearGradient id="paint0_linear_2998_745" x1="79.9996" y1="0" x2="0.987314" y2="79.0123" gradientUnits="userSpaceOnUse">
<stop stop-color="#DCCDC1"/>
<stop offset="1" stop-color="#A4ADD7"/>
</linearGradient>
<clipPath id="clip0_2998_745">
<rect width="80" height="80" fill="white"/>
</clipPath>
</defs>
</svg>
