<svg width="80" height="80" viewBox="0 0 80 80" fill="none" xmlns="http://www.w3.org/2000/svg">
<g clip-path="url(#clip0_850_1830)">
<path d="M61.6256 0.500916H6.51225C3.19231 0.500916 0.500977 3.19225 0.500977 6.51219V61.6255C0.500977 64.9455 3.19231 67.6368 6.51225 67.6368H61.6256C64.9455 67.6368 67.6369 64.9455 67.6369 61.6255V6.51219C67.6369 3.19225 64.9455 0.500916 61.6256 0.500916Z" stroke="url(#paint0_linear_850_1830)" stroke-miterlimit="10"/>
<path d="M61.6256 0.500916H6.51225C3.19231 0.500916 0.500977 3.19225 0.500977 6.51219V61.6255C0.500977 64.9455 3.19231 67.6368 6.51225 67.6368H61.6256C64.9455 67.6368 67.6369 64.9455 67.6369 61.6255V6.51219C67.6369 3.19225 64.9455 0.500916 61.6256 0.500916Z" stroke="#54375F" stroke-opacity="0.25" stroke-miterlimit="10"/>
<path d="M73.4879 12.3632H18.3746C15.0546 12.3632 12.3633 15.0545 12.3633 18.3744V73.4878C12.3633 76.8077 15.0546 79.499 18.3746 79.499H73.4879C76.8078 79.499 79.4992 76.8077 79.4992 73.4878V18.3744C79.4992 15.0545 76.8078 12.3632 73.4879 12.3632Z" stroke="url(#paint1_linear_850_1830)" stroke-miterlimit="10"/>
<path d="M73.4879 12.3632H18.3746C15.0546 12.3632 12.3633 15.0545 12.3633 18.3744V73.4878C12.3633 76.8077 15.0546 79.499 18.3746 79.499H73.4879C76.8078 79.499 79.4992 76.8077 79.4992 73.4878V18.3744C79.4992 15.0545 76.8078 12.3632 73.4879 12.3632Z" stroke="#54375F" stroke-opacity="0.25" stroke-miterlimit="10"/>
<path d="M50.4445 24.4559H29.5654C26.749 24.4559 24.4658 26.739 24.4658 29.5554V50.4346C24.4658 53.251 26.749 55.5341 29.5654 55.5341H50.4445C53.2609 55.5341 55.5441 53.251 55.5441 50.4346V29.5554C55.5441 26.739 53.2609 24.4559 50.4445 24.4559Z" stroke="url(#paint2_linear_850_1830)" stroke-miterlimit="10"/>
<path d="M50.4445 24.4559H29.5654C26.749 24.4559 24.4658 26.739 24.4658 29.5554V50.4346C24.4658 53.251 26.749 55.5341 29.5654 55.5341H50.4445C53.2609 55.5341 55.5441 53.251 55.5441 50.4346V29.5554C55.5441 26.739 53.2609 24.4559 50.4445 24.4559Z" stroke="#54375F" stroke-opacity="0.25" stroke-miterlimit="10"/>
<path d="M39.9948 55.0833C48.3334 55.0833 55.0931 48.3235 55.0931 39.985C55.0931 31.6464 48.3334 24.8867 39.9948 24.8867C31.6562 24.8867 24.8965 31.6464 24.8965 39.985C24.8965 48.3235 31.6562 55.0833 39.9948 55.0833Z" fill="url(#paint3_linear_850_1830)"/>
<path d="M39.9948 55.0833C48.3334 55.0833 55.0931 48.3235 55.0931 39.985C55.0931 31.6464 48.3334 24.8867 39.9948 24.8867C31.6562 24.8867 24.8965 31.6464 24.8965 39.985C24.8965 48.3235 31.6562 55.0833 39.9948 55.0833Z" fill="#54375F" fill-opacity="0.25"/>
</g>
<defs>
<linearGradient id="paint0_linear_850_1830" x1="67.6369" y1="0.500916" x2="0.500985" y2="67.6368" gradientUnits="userSpaceOnUse">
<stop stop-color="#DCCDC1"/>
<stop offset="1" stop-color="#A4ADD7"/>
</linearGradient>
<linearGradient id="paint1_linear_850_1830" x1="79.4992" y1="12.3632" x2="12.3633" y2="79.499" gradientUnits="userSpaceOnUse">
<stop stop-color="#DCCDC1"/>
<stop offset="1" stop-color="#A4ADD7"/>
</linearGradient>
<linearGradient id="paint2_linear_850_1830" x1="55.5441" y1="24.4559" x2="24.4658" y2="55.5341" gradientUnits="userSpaceOnUse">
<stop stop-color="#DCCDC1"/>
<stop offset="1" stop-color="#A4ADD7"/>
</linearGradient>
<linearGradient id="paint3_linear_850_1830" x1="55.0931" y1="24.8867" x2="24.8965" y2="55.0833" gradientUnits="userSpaceOnUse">
<stop stop-color="#DCCDC1"/>
<stop offset="1" stop-color="#A4ADD7"/>
</linearGradient>
<clipPath id="clip0_850_1830">
<rect width="80" height="80" fill="white"/>
</clipPath>
</defs>
</svg>
