<svg width="80" height="80" viewBox="0 0 80 80" fill="none" xmlns="http://www.w3.org/2000/svg">
<g clip-path="url(#clip0_850_1831)">
<path d="M62.7446 0.500793H17.4457C14.6272 0.500793 12.3423 2.78337 12.3423 5.59908V50.8526C12.3423 53.6683 14.6272 55.9509 17.4457 55.9509H62.7446C65.5631 55.9509 67.848 53.6683 67.848 50.8526V5.59908C67.848 2.78337 65.5631 0.500793 62.7446 0.500793Z" stroke="url(#paint0_linear_850_1831)" stroke-miterlimit="10"/>
<path d="M62.7446 0.500793H17.4457C14.6272 0.500793 12.3423 2.78337 12.3423 5.59908V50.8526C12.3423 53.6683 14.6272 55.9509 17.4457 55.9509H62.7446C65.5631 55.9509 67.848 53.6683 67.848 50.8526V5.59908C67.848 2.78337 65.5631 0.500793 62.7446 0.500793Z" stroke="#54375F" stroke-opacity="0.25" stroke-miterlimit="10"/>
<path d="M74.3955 24.4798H29.5277C26.7092 24.4798 24.4243 26.7624 24.4243 29.5781V74.4009C24.4243 77.2166 26.7092 79.4992 29.5277 79.4992H74.3955C77.214 79.4992 79.4989 77.2166 79.4989 74.4009V29.5781C79.4989 26.7624 77.214 24.4798 74.3955 24.4798Z" stroke="url(#paint1_linear_850_1831)" stroke-miterlimit="10"/>
<path d="M74.3955 24.4798H29.5277C26.7092 24.4798 24.4243 26.7624 24.4243 29.5781V74.4009C24.4243 77.2166 26.7092 79.4992 29.5277 79.4992H74.3955C77.214 79.4992 79.4989 77.2166 79.4989 74.4009V29.5781C79.4989 26.7624 77.214 24.4798 74.3955 24.4798Z" stroke="#54375F" stroke-opacity="0.25" stroke-miterlimit="10"/>
<path d="M50.9038 12.4202H5.60486C2.78633 12.4202 0.501465 14.7027 0.501465 17.5185V62.772C0.501465 65.5877 2.78633 67.8703 5.60486 67.8703H50.9038C53.7223 67.8703 56.0072 65.5877 56.0072 62.772V17.5185C56.0072 14.7027 53.7223 12.4202 50.9038 12.4202Z" stroke="url(#paint2_linear_850_1831)" stroke-miterlimit="10"/>
<path d="M50.9038 12.4202H5.60486C2.78633 12.4202 0.501465 14.7027 0.501465 17.5185V62.772C0.501465 65.5877 2.78633 67.8703 5.60486 67.8703H50.9038C53.7223 67.8703 56.0072 65.5877 56.0072 62.772V17.5185C56.0072 14.7027 53.7223 12.4202 50.9038 12.4202Z" stroke="#54375F" stroke-opacity="0.25" stroke-miterlimit="10"/>
<path d="M40.0953 55.4902C48.5509 55.4902 55.4055 48.6424 55.4055 40.1953C55.4055 31.7482 48.5509 24.9005 40.0953 24.9005C31.6398 24.9005 24.7852 31.7482 24.7852 40.1953C24.7852 48.6424 31.6398 55.4902 40.0953 55.4902Z" fill="url(#paint3_linear_850_1831)"/>
<path d="M40.0953 55.4902C48.5509 55.4902 55.4055 48.6424 55.4055 40.1953C55.4055 31.7482 48.5509 24.9005 40.0953 24.9005C31.6398 24.9005 24.7852 31.7482 24.7852 40.1953C24.7852 48.6424 31.6398 55.4902 40.0953 55.4902Z" fill="#54375F" fill-opacity="0.25"/>
</g>
<defs>
<linearGradient id="paint0_linear_850_1831" x1="67.848" y1="0.500793" x2="12.3979" y2="56.0065" gradientUnits="userSpaceOnUse">
<stop stop-color="#DCCDC1"/>
<stop offset="1" stop-color="#A4ADD7"/>
</linearGradient>
<linearGradient id="paint1_linear_850_1831" x1="79.4989" y1="24.4798" x2="24.4795" y2="79.5543" gradientUnits="userSpaceOnUse">
<stop stop-color="#DCCDC1"/>
<stop offset="1" stop-color="#A4ADD7"/>
</linearGradient>
<linearGradient id="paint2_linear_850_1831" x1="56.0072" y1="12.4202" x2="0.557099" y2="67.9258" gradientUnits="userSpaceOnUse">
<stop stop-color="#DCCDC1"/>
<stop offset="1" stop-color="#A4ADD7"/>
</linearGradient>
<linearGradient id="paint3_linear_850_1831" x1="55.4055" y1="24.9005" x2="24.8158" y2="55.5208" gradientUnits="userSpaceOnUse">
<stop stop-color="#DCCDC1"/>
<stop offset="1" stop-color="#A4ADD7"/>
</linearGradient>
<clipPath id="clip0_850_1831">
<rect width="80" height="80" fill="white"/>
</clipPath>
</defs>
</svg>
