<svg width="81" height="80" viewBox="0 0 81 80" fill="none" xmlns="http://www.w3.org/2000/svg">
<g clip-path="url(#clip0_850_1829)">
<path d="M29.919 24.4489H50.8608C53.6765 24.4489 55.961 26.7335 55.961 29.5491V50.4008C55.961 53.2164 53.6765 55.501 50.8608 55.501H30.0091C27.1935 55.501 24.9089 53.2164 24.9089 50.4008V29.4589C24.9089 26.6934 27.1534 24.4489 29.919 24.4489Z" stroke="url(#paint0_linear_850_1829)" stroke-miterlimit="10"/>
<path d="M29.919 24.4489H50.8608C53.6765 24.4489 55.961 26.7335 55.961 29.5491V50.4008C55.961 53.2164 53.6765 55.501 50.8608 55.501H30.0091C27.1935 55.501 24.9089 53.2164 24.9089 50.4008V29.4589C24.9089 26.6934 27.1534 24.4489 29.919 24.4489Z" stroke="#54375F" stroke-opacity="0.25" stroke-miterlimit="10"/>
<path d="M40.4698 55.0702C48.8094 55.0702 55.57 48.3096 55.57 39.97C55.57 31.6303 48.8094 24.8698 40.4698 24.8698C32.1302 24.8698 25.3696 31.6303 25.3696 39.97C25.3696 48.3096 32.1302 55.0702 40.4698 55.0702Z" fill="url(#paint1_linear_850_1829)"/>
<path d="M40.4698 55.0702C48.8094 55.0702 55.57 48.3096 55.57 39.97C55.57 31.6303 48.8094 24.8698 40.4698 24.8698C32.1302 24.8698 25.3696 31.6303 25.3696 39.97C25.3696 48.3096 32.1302 55.0702 40.4698 55.0702Z" fill="#54375F" fill-opacity="0.25"/>
<path d="M50.8506 24.4188H6.15123C3.33446 24.4188 1.05103 26.7023 1.05103 29.519V74.2184C1.05103 77.0352 3.33446 79.3186 6.15123 79.3186H50.8506C53.6674 79.3186 55.9508 77.0352 55.9508 74.2184V29.519C55.9508 26.7023 53.6674 24.4188 50.8506 24.4188Z" stroke="url(#paint2_linear_850_1829)" stroke-miterlimit="10"/>
<path d="M50.8506 24.4188H6.15123C3.33446 24.4188 1.05103 26.7023 1.05103 29.519V74.2184C1.05103 77.0352 3.33446 79.3186 6.15123 79.3186H50.8506C53.6674 79.3186 55.9508 77.0352 55.9508 74.2184V29.519C55.9508 26.7023 53.6674 24.4188 50.8506 24.4188Z" stroke="#54375F" stroke-opacity="0.25" stroke-miterlimit="10"/>
<path d="M74.8988 0.500977H6.10118C3.28441 0.500977 1.00098 2.78441 1.00098 5.60118V74.3988C1.00098 77.2155 3.28441 79.499 6.10118 79.499H74.8988C77.7155 79.499 79.999 77.2155 79.999 74.3988V5.60118C79.999 2.78441 77.7155 0.500977 74.8988 0.500977Z" stroke="url(#paint3_linear_850_1829)" stroke-miterlimit="10"/>
<path d="M74.8988 0.500977H6.10118C3.28441 0.500977 1.00098 2.78441 1.00098 5.60118V74.3988C1.00098 77.2155 3.28441 79.499 6.10118 79.499H74.8988C77.7155 79.499 79.999 77.2155 79.999 74.3988V5.60118C79.999 2.78441 77.7155 0.500977 74.8988 0.500977Z" stroke="#54375F" stroke-opacity="0.25" stroke-miterlimit="10"/>
</g>
<defs>
<linearGradient id="paint0_linear_850_1829" x1="55.961" y1="24.4489" x2="24.9089" y2="55.501" gradientUnits="userSpaceOnUse">
<stop stop-color="#DCCDC1"/>
<stop offset="1" stop-color="#A4ADD7"/>
</linearGradient>
<linearGradient id="paint1_linear_850_1829" x1="55.57" y1="24.8698" x2="25.3696" y2="55.0702" gradientUnits="userSpaceOnUse">
<stop stop-color="#DCCDC1"/>
<stop offset="1" stop-color="#A4ADD7"/>
</linearGradient>
<linearGradient id="paint2_linear_850_1829" x1="55.9508" y1="24.4188" x2="1.05103" y2="79.3186" gradientUnits="userSpaceOnUse">
<stop stop-color="#DCCDC1"/>
<stop offset="1" stop-color="#A4ADD7"/>
</linearGradient>
<linearGradient id="paint3_linear_850_1829" x1="79.999" y1="0.500977" x2="1.00099" y2="79.499" gradientUnits="userSpaceOnUse">
<stop stop-color="#DCCDC1"/>
<stop offset="1" stop-color="#A4ADD7"/>
</linearGradient>
<clipPath id="clip0_850_1829">
<rect width="80" height="80" fill="white" transform="translate(0.5)"/>
</clipPath>
</defs>
</svg>
