<svg width="81" height="80" viewBox="0 0 81 80" fill="none" xmlns="http://www.w3.org/2000/svg">
<path d="M75.4006 0H53.3534C50.5937 0 48.354 2.23944 48.354 4.99875V12.017H17.5979C14.7882 12.017 12.5085 14.2964 12.5085 17.1057V47.858H5.58936C2.77972 47.858 0.5 50.1375 0.5 52.9468V74.9113C0.5 77.7206 2.77972 80 5.58936 80H27.5466C30.3563 80 32.636 77.7206 32.636 74.9113V68.083H63.4921C66.3018 68.083 68.5815 65.8036 68.5815 62.9943V32.142H75.4106C78.2203 32.142 80.5 29.8625 80.5 27.0532V5.08873C80.5 2.27943 78.2203 0 75.4106 0H75.4006ZM13.5184 17.0957C13.5184 14.8463 15.3481 13.0067 17.6079 13.0067H48.364V26.1035C46.0543 24.8138 43.3946 24.064 40.555 24.064C31.7061 24.064 24.537 31.2322 24.537 40.08C24.537 42.8993 25.2669 45.5386 26.5467 47.838H13.5184V17.0957ZM31.6361 74.8913C31.6361 77.1407 29.8063 78.9803 27.5466 78.9803H5.58936C3.33965 78.9803 1.49988 77.1507 1.49988 74.8913V52.9268C1.49988 50.6773 3.32965 48.8378 5.58936 48.8378H12.5185V62.9743C12.5185 65.7836 14.7982 68.063 17.6079 68.063H31.6461V74.8913H31.6361ZM17.5979 67.0632C15.3481 67.0632 13.5084 65.2337 13.5084 62.9743V48.8378H27.1367C28.3165 50.6373 29.8463 52.197 31.6361 53.3967V67.0632H17.5979ZM67.5716 62.9743C67.5716 65.2237 65.7418 67.0632 63.4821 67.0632H32.626V53.9965C34.9657 55.3262 37.6554 56.096 40.535 56.096C49.3839 56.096 56.553 48.9278 56.553 40.08C56.553 37.1807 55.7731 34.4714 54.4233 32.122H67.5616V62.9743H67.5716ZM67.5716 31.1222H53.8233C52.6435 29.3727 51.1137 27.873 49.3439 26.7033V13.0167H63.4821C65.7318 13.0167 67.5716 14.8463 67.5716 17.1057V31.1422V31.1222ZM79.4801 27.0332C79.4801 29.2827 77.6504 31.1222 75.3906 31.1222H68.5615V17.0857C68.5615 14.2764 66.2818 11.997 63.4721 11.997H49.3339V4.99875C49.3339 2.7893 51.1237 0.99975 53.3334 0.99975H75.3806C77.6304 0.99975 79.4701 2.82929 79.4701 5.08873V27.0432L79.4801 27.0332Z" fill="url(#paint0_linear_841_832)"/>
<path d="M75.4006 0H53.3534C50.5937 0 48.354 2.23944 48.354 4.99875V12.017H17.5979C14.7882 12.017 12.5085 14.2964 12.5085 17.1057V47.858H5.58936C2.77972 47.858 0.5 50.1375 0.5 52.9468V74.9113C0.5 77.7206 2.77972 80 5.58936 80H27.5466C30.3563 80 32.636 77.7206 32.636 74.9113V68.083H63.4921C66.3018 68.083 68.5815 65.8036 68.5815 62.9943V32.142H75.4106C78.2203 32.142 80.5 29.8625 80.5 27.0532V5.08873C80.5 2.27943 78.2203 0 75.4106 0H75.4006ZM13.5184 17.0957C13.5184 14.8463 15.3481 13.0067 17.6079 13.0067H48.364V26.1035C46.0543 24.8138 43.3946 24.064 40.555 24.064C31.7061 24.064 24.537 31.2322 24.537 40.08C24.537 42.8993 25.2669 45.5386 26.5467 47.838H13.5184V17.0957ZM31.6361 74.8913C31.6361 77.1407 29.8063 78.9803 27.5466 78.9803H5.58936C3.33965 78.9803 1.49988 77.1507 1.49988 74.8913V52.9268C1.49988 50.6773 3.32965 48.8378 5.58936 48.8378H12.5185V62.9743C12.5185 65.7836 14.7982 68.063 17.6079 68.063H31.6461V74.8913H31.6361ZM17.5979 67.0632C15.3481 67.0632 13.5084 65.2337 13.5084 62.9743V48.8378H27.1367C28.3165 50.6373 29.8463 52.197 31.6361 53.3967V67.0632H17.5979ZM67.5716 62.9743C67.5716 65.2237 65.7418 67.0632 63.4821 67.0632H32.626V53.9965C34.9657 55.3262 37.6554 56.096 40.535 56.096C49.3839 56.096 56.553 48.9278 56.553 40.08C56.553 37.1807 55.7731 34.4714 54.4233 32.122H67.5616V62.9743H67.5716ZM67.5716 31.1222H53.8233C52.6435 29.3727 51.1137 27.873 49.3439 26.7033V13.0167H63.4821C65.7318 13.0167 67.5716 14.8463 67.5716 17.1057V31.1422V31.1222ZM79.4801 27.0332C79.4801 29.2827 77.6504 31.1222 75.3906 31.1222H68.5615V17.0857C68.5615 14.2764 66.2818 11.997 63.4721 11.997H49.3339V4.99875C49.3339 2.7893 51.1237 0.99975 53.3334 0.99975H75.3806C77.6304 0.99975 79.4701 2.82929 79.4701 5.08873V27.0432L79.4801 27.0332Z" fill="#54375F" fill-opacity="0.25"/>
<defs>
<linearGradient id="paint0_linear_841_832" x1="80.5" y1="0" x2="0.50001" y2="80" gradientUnits="userSpaceOnUse">
<stop stop-color="#DCCDC1"/>
<stop offset="1" stop-color="#A4ADD7"/>
</linearGradient>
</defs>
</svg>
