<svg width="80" height="80" viewBox="0 0 80 80" fill="none" xmlns="http://www.w3.org/2000/svg">
<g clip-path="url(#clip0_850_1827)">
<path d="M50.6863 24.2163H5.59862C2.78327 24.2163 0.500977 26.4986 0.500977 29.314V74.4016C0.500977 77.2169 2.78327 79.4992 5.59862 79.4992H50.6863C53.5016 79.4992 55.7839 77.2169 55.7839 74.4016V29.314C55.7839 26.4986 53.5016 24.2163 50.6863 24.2163Z" stroke="url(#paint0_linear_850_1827)" stroke-miterlimit="10"/>
<path d="M50.6863 24.2163H5.59862C2.78327 24.2163 0.500977 26.4986 0.500977 29.314V74.4016C0.500977 77.2169 2.78327 79.4992 5.59862 79.4992H50.6863C53.5016 79.4992 55.7839 77.2169 55.7839 74.4016V29.314C55.7839 26.4986 53.5016 24.2163 50.6863 24.2163Z" stroke="#54375F" stroke-opacity="0.25" stroke-miterlimit="10"/>
<path d="M62.5036 24.2163H17.416C14.6007 24.2163 12.3184 26.4986 12.3184 29.314V50.7261C12.3184 53.5414 14.6007 55.8237 17.416 55.8237H62.5036C65.319 55.8237 67.6013 53.5414 67.6013 50.7261V29.314C67.6013 26.4986 65.319 24.2163 62.5036 24.2163Z" stroke="url(#paint1_linear_850_1827)" stroke-miterlimit="10"/>
<path d="M62.5036 24.2163H17.416C14.6007 24.2163 12.3184 26.4986 12.3184 29.314V50.7261C12.3184 53.5414 14.6007 55.8237 17.416 55.8237H62.5036C65.319 55.8237 67.6013 53.5414 67.6013 50.7261V29.314C67.6013 26.4986 65.319 24.2163 62.5036 24.2163Z" stroke="#54375F" stroke-opacity="0.25" stroke-miterlimit="10"/>
<path d="M55.7534 74.4016V29.314C55.7534 26.4986 53.4711 24.2163 50.6558 24.2163H29.2437C26.4283 24.2163 24.146 26.4986 24.146 29.314L24.146 74.4016C24.146 77.2169 26.4283 79.4992 29.2437 79.4992H50.6558C53.4711 79.4992 55.7534 77.2169 55.7534 74.4016Z" stroke="url(#paint2_linear_850_1827)" stroke-miterlimit="10"/>
<path d="M55.7534 74.4016V29.314C55.7534 26.4986 53.4711 24.2163 50.6558 24.2163H29.2437C26.4283 24.2163 24.146 26.4986 24.146 29.314L24.146 74.4016C24.146 77.2169 26.4283 79.4992 29.2437 79.4992H50.6558C53.4711 79.4992 55.7534 77.2169 55.7534 74.4016Z" stroke="#54375F" stroke-opacity="0.25" stroke-miterlimit="10"/>
<path d="M74.4016 0.500732H29.314C26.4986 0.500732 24.2163 2.78303 24.2163 5.59838V50.686C24.2163 53.5014 26.4986 55.7837 29.314 55.7837H74.4016C77.2169 55.7837 79.4992 53.5014 79.4992 50.686V5.59838C79.4992 2.78303 77.2169 0.500732 74.4016 0.500732Z" stroke="url(#paint3_linear_850_1827)" stroke-miterlimit="10"/>
<path d="M74.4016 0.500732H29.314C26.4986 0.500732 24.2163 2.78303 24.2163 5.59838V50.686C24.2163 53.5014 26.4986 55.7837 29.314 55.7837H74.4016C77.2169 55.7837 79.4992 53.5014 79.4992 50.686V5.59838C79.4992 2.78303 77.2169 0.500732 74.4016 0.500732Z" stroke="#54375F" stroke-opacity="0.25" stroke-miterlimit="10"/>
<path d="M39.9398 55.0926C48.2752 55.0926 55.0324 48.3354 55.0324 40C55.0324 31.6646 48.2752 24.9073 39.9398 24.9073C31.6044 24.9073 24.8472 31.6646 24.8472 40C24.8472 48.3354 31.6044 55.0926 39.9398 55.0926Z" fill="url(#paint4_linear_850_1827)"/>
<path d="M39.9398 55.0926C48.2752 55.0926 55.0324 48.3354 55.0324 40C55.0324 31.6646 48.2752 24.9073 39.9398 24.9073C31.6044 24.9073 24.8472 31.6646 24.8472 40C24.8472 48.3354 31.6044 55.0926 39.9398 55.0926Z" fill="#54375F" fill-opacity="0.25"/>
</g>
<defs>
<linearGradient id="paint0_linear_850_1827" x1="55.7839" y1="24.2163" x2="0.500987" y2="79.4992" gradientUnits="userSpaceOnUse">
<stop stop-color="#DCCDC1"/>
<stop offset="1" stop-color="#A4ADD7"/>
</linearGradient>
<linearGradient id="paint1_linear_850_1827" x1="67.6013" y1="24.2163" x2="40.3628" y2="71.8578" gradientUnits="userSpaceOnUse">
<stop stop-color="#DCCDC1"/>
<stop offset="1" stop-color="#A4ADD7"/>
</linearGradient>
<linearGradient id="paint2_linear_850_1827" x1="55.7534" y1="79.4992" x2="8.11192" y2="52.2607" gradientUnits="userSpaceOnUse">
<stop stop-color="#DCCDC1"/>
<stop offset="1" stop-color="#A4ADD7"/>
</linearGradient>
<linearGradient id="paint3_linear_850_1827" x1="79.4992" y1="0.500732" x2="24.2163" y2="55.7837" gradientUnits="userSpaceOnUse">
<stop stop-color="#DCCDC1"/>
<stop offset="1" stop-color="#A4ADD7"/>
</linearGradient>
<linearGradient id="paint4_linear_850_1827" x1="55.0324" y1="24.9073" x2="24.8472" y2="55.0926" gradientUnits="userSpaceOnUse">
<stop stop-color="#DCCDC1"/>
<stop offset="1" stop-color="#A4ADD7"/>
</linearGradient>
<clipPath id="clip0_850_1827">
<rect width="80" height="80" fill="white"/>
</clipPath>
</defs>
</svg>
