<svg width="81" height="80" viewBox="0 0 81 80" fill="none" xmlns="http://www.w3.org/2000/svg">
<g clip-path="url(#clip0_850_1828)">
<path d="M40.6505 55.5458C49.1961 55.5458 56.1237 48.6104 56.1237 40.0551C56.1237 31.4999 49.1961 24.5645 40.6505 24.5645C32.1048 24.5645 25.1772 31.4999 25.1772 40.0551C25.1772 48.6104 32.1048 55.5458 40.6505 55.5458Z" fill="url(#paint0_linear_850_1828)"/>
<path d="M40.6505 55.5458C49.1961 55.5458 56.1237 48.6104 56.1237 40.0551C56.1237 31.4999 49.1961 24.5645 40.6505 24.5645C32.1048 24.5645 25.1772 31.4999 25.1772 40.0551C25.1772 48.6104 32.1048 55.5458 40.6505 55.5458Z" fill="#54375F" fill-opacity="0.25"/>
<path d="M63.1441 12.202H17.8862C15.0709 12.202 12.7886 14.4869 12.7886 17.3054V62.6144C12.7886 65.4329 15.0709 67.7178 17.8862 67.7178H63.1441C65.9595 67.7178 68.2418 65.4329 68.2418 62.6144V17.3054C68.2418 14.4869 65.9595 12.202 63.1441 12.202Z" stroke="url(#paint1_linear_850_1828)" stroke-miterlimit="10"/>
<path d="M63.1441 12.202H17.8862C15.0709 12.202 12.7886 14.4869 12.7886 17.3054V62.6144C12.7886 65.4329 15.0709 67.7178 17.8862 67.7178H63.1441C65.9595 67.7178 68.2418 65.4329 68.2418 62.6144V17.3054C68.2418 14.4869 65.9595 12.202 63.1441 12.202Z" stroke="#54375F" stroke-opacity="0.25" stroke-miterlimit="10"/>
<path d="M51.5365 23.9729H29.7939C26.9786 23.9729 24.6963 26.2578 24.6963 29.0763V74.3953C24.6963 77.2138 26.9786 79.4987 29.7939 79.4987H51.5365C54.3519 79.4987 56.6342 77.2138 56.6342 74.3953V29.0763C56.6342 26.2578 54.3519 23.9729 51.5365 23.9729Z" stroke="url(#paint2_linear_850_1828)" stroke-miterlimit="10"/>
<path d="M51.5365 23.9729H29.7939C26.9786 23.9729 24.6963 26.2578 24.6963 29.0763V74.3953C24.6963 77.2138 26.9786 79.4987 29.7939 79.4987H51.5365C54.3519 79.4987 56.6342 77.2138 56.6342 74.3953V29.0763C56.6342 26.2578 54.3519 23.9729 51.5365 23.9729Z" stroke="#54375F" stroke-opacity="0.25" stroke-miterlimit="10"/>
<path d="M51.5365 0.501343H29.7939C26.9786 0.501343 24.6963 2.78621 24.6963 5.60474V50.9237C24.6963 53.7422 26.9786 56.0271 29.7939 56.0271H51.5365C54.3519 56.0271 56.6342 53.7422 56.6342 50.9237V5.60474C56.6342 2.78621 54.3519 0.501343 51.5365 0.501343Z" stroke="url(#paint3_linear_850_1828)" stroke-miterlimit="10"/>
<path d="M51.5365 0.501343H29.7939C26.9786 0.501343 24.6963 2.78621 24.6963 5.60474V50.9237C24.6963 53.7422 26.9786 56.0271 29.7939 56.0271H51.5365C54.3519 56.0271 56.6342 53.7422 56.6342 50.9237V5.60474C56.6342 2.78621 54.3519 0.501343 51.5365 0.501343Z" stroke="#54375F" stroke-opacity="0.25" stroke-miterlimit="10"/>
<path d="M56.644 50.9136V29.1465C56.644 26.328 54.3617 24.0431 51.5464 24.0431L6.10824 24.0431C3.29288 24.0431 1.0106 26.328 1.0106 29.1465V50.9136C1.0106 53.7322 3.29288 56.017 6.10824 56.017H51.5464C54.3617 56.017 56.644 53.7322 56.644 50.9136Z" stroke="url(#paint4_linear_850_1828)" stroke-miterlimit="10"/>
<path d="M56.644 50.9136V29.1465C56.644 26.328 54.3617 24.0431 51.5464 24.0431L6.10824 24.0431C3.29288 24.0431 1.0106 26.328 1.0106 29.1465V50.9136C1.0106 53.7322 3.29288 56.017 6.10824 56.017H51.5464C54.3617 56.017 56.644 53.7322 56.644 50.9136Z" stroke="#54375F" stroke-opacity="0.25" stroke-miterlimit="10"/>
<path d="M79.999 50.9237V29.0162C79.999 26.1976 77.7167 23.9128 74.9014 23.9128L29.9039 23.9128C27.0885 23.9128 24.8062 26.1976 24.8062 29.0162V50.9237C24.8062 53.7422 27.0885 56.0271 29.9039 56.0271H74.9014C77.7167 56.0271 79.999 53.7422 79.999 50.9237Z" stroke="url(#paint5_linear_850_1828)" stroke-miterlimit="10"/>
<path d="M79.999 50.9237V29.0162C79.999 26.1976 77.7167 23.9128 74.9014 23.9128L29.9039 23.9128C27.0885 23.9128 24.8062 26.1976 24.8062 29.0162V50.9237C24.8062 53.7422 27.0885 56.0271 29.9039 56.0271H74.9014C77.7167 56.0271 79.999 53.7422 79.999 50.9237Z" stroke="#54375F" stroke-opacity="0.25" stroke-miterlimit="10"/>
</g>
<defs>
<linearGradient id="paint0_linear_850_1828" x1="56.1237" y1="24.5645" x2="25.1424" y2="55.5109" gradientUnits="userSpaceOnUse">
<stop stop-color="#DCCDC1"/>
<stop offset="1" stop-color="#A4ADD7"/>
</linearGradient>
<linearGradient id="paint1_linear_850_1828" x1="68.2418" y1="12.202" x2="12.7261" y2="67.6552" gradientUnits="userSpaceOnUse">
<stop stop-color="#DCCDC1"/>
<stop offset="1" stop-color="#A4ADD7"/>
</linearGradient>
<linearGradient id="paint2_linear_850_1828" x1="56.6342" y1="23.9729" x2="8.63775" y2="51.58" gradientUnits="userSpaceOnUse">
<stop stop-color="#DCCDC1"/>
<stop offset="1" stop-color="#A4ADD7"/>
</linearGradient>
<linearGradient id="paint3_linear_850_1828" x1="56.6342" y1="0.501343" x2="8.63775" y2="28.1085" gradientUnits="userSpaceOnUse">
<stop stop-color="#DCCDC1"/>
<stop offset="1" stop-color="#A4ADD7"/>
</linearGradient>
<linearGradient id="paint4_linear_850_1828" x1="56.644" y1="56.017" x2="29.017" y2="7.94709" gradientUnits="userSpaceOnUse">
<stop stop-color="#DCCDC1"/>
<stop offset="1" stop-color="#A4ADD7"/>
</linearGradient>
<linearGradient id="paint5_linear_850_1828" x1="79.999" y1="56.0271" x2="52.0795" y2="8.04363" gradientUnits="userSpaceOnUse">
<stop stop-color="#DCCDC1"/>
<stop offset="1" stop-color="#A4ADD7"/>
</linearGradient>
<clipPath id="clip0_850_1828">
<rect width="80" height="80" fill="white" transform="translate(0.5)"/>
</clipPath>
</defs>
</svg>
