<svg width="80" height="80" viewBox="0 0 80 80" fill="none" xmlns="http://www.w3.org/2000/svg">
<g clip-path="url(#clip0_2999_8300)">
<path fill-rule="evenodd" clip-rule="evenodd" d="M2.48145 2.91326C2.48145 2.40187 2.89601 1.9873 3.4074 1.9873H9.96528C10.4767 1.9873 10.8912 2.40187 10.8912 2.91326V9.47114C10.8912 9.98253 10.4767 10.3971 9.96528 10.3971H3.4074C2.89601 10.3971 2.48145 9.98253 2.48145 9.47114V2.91326ZM3.4074 -0.0126953C1.79144 -0.0126953 0.481445 1.2973 0.481445 2.91326V9.47114C0.481445 11.0871 1.79144 12.3971 3.4074 12.3971H9.96528C11.5812 12.3971 12.8912 11.0871 12.8912 9.47114V7.19704H29.0516C29.5586 7.19704 29.9776 7.61601 29.9776 8.123V19.2469H22.6671C21.0512 19.2469 19.7412 20.5569 19.7412 22.1728V27.4033H12.8912V25.1195C12.8912 23.5036 11.5812 22.1936 9.96528 22.1936H3.4074C1.79144 22.1936 0.481445 23.5036 0.481445 25.1195V31.6774C0.481445 33.2934 1.79144 34.6034 3.4074 34.6034H9.96528C11.5812 34.6034 12.8912 33.2934 12.8912 31.6774V29.4033H19.7412V49.6096H12.8912V47.3355C12.8912 45.7195 11.5812 44.4095 9.96528 44.4095H3.4074C1.79144 44.4095 0.481445 45.7195 0.481445 47.3355V53.8933C0.481445 55.5093 1.79144 56.8193 3.4074 56.8193H9.96528C11.5812 56.8193 12.8912 55.5093 12.8912 53.8933V51.6096H19.7412V56.84C19.7412 58.456 21.0512 59.766 22.6671 59.766H29.9776V70.8899C29.9776 71.3969 29.5586 71.8158 29.0516 71.8158H12.8912V69.5417C12.8912 67.9258 11.5812 66.6158 9.96528 66.6158H3.4074C1.79144 66.6158 0.481445 67.9258 0.481445 69.5417V76.0996C0.481445 77.7155 1.79144 79.0255 3.4074 79.0255H9.96528C11.5812 79.0255 12.8912 77.7155 12.8912 76.0996V73.8158H29.0516C30.6632 73.8158 31.9776 72.5014 31.9776 70.8899V59.766H48.0239V70.8899C48.0239 72.5014 49.3383 73.8158 50.9498 73.8158H67.11V76.0996C67.11 77.7155 68.42 79.0255 70.036 79.0255H76.5938C78.2098 79.0255 79.5198 77.7155 79.5198 76.0996V69.5417C79.5198 67.9258 78.2098 66.6158 76.5938 66.6158H70.036C68.42 66.6158 67.11 67.9258 67.11 69.5417V71.8158H50.9498C50.4428 71.8158 50.0239 71.3969 50.0239 70.8899V59.766H57.3344C58.9503 59.766 60.2603 58.456 60.2603 56.84V51.6096H67.11V53.8933C67.11 55.5093 68.42 56.8193 70.036 56.8193H76.5938C78.2098 56.8193 79.5198 55.5093 79.5198 53.8933V47.3355C79.5198 45.7195 78.2098 44.4095 76.5938 44.4095H70.036C68.42 44.4095 67.11 45.7195 67.11 47.3355V49.6096H60.2603V29.4033H67.11V31.6774C67.11 33.2934 68.42 34.6034 70.036 34.6034H76.5938C78.2098 34.6034 79.5198 33.2934 79.5198 31.6774V25.1195C79.5198 23.5036 78.2098 22.1936 76.5938 22.1936H70.036C68.42 22.1936 67.11 23.5036 67.11 25.1195V27.4033H60.2603V22.1728C60.2603 20.5569 58.9503 19.2469 57.3344 19.2469H50.0239V8.123C50.0239 7.61601 50.4428 7.19704 50.9498 7.19704H67.11V9.47114C67.11 11.0871 68.42 12.3971 70.036 12.3971H76.5938C78.2098 12.3971 79.5198 11.0871 79.5198 9.47114V2.91326C79.5198 1.2973 78.2098 -0.0126953 76.5938 -0.0126953H70.036C68.42 -0.0126953 67.11 1.2973 67.11 2.91326V5.19704H50.9498C49.3383 5.19704 48.0239 6.51144 48.0239 8.123V19.2469H31.9776V8.123C31.9776 6.51144 30.6632 5.19704 29.0516 5.19704H12.8912V2.91326C12.8912 1.2973 11.5812 -0.0126953 9.96528 -0.0126953H3.4074ZM3.4074 24.1936C2.89601 24.1936 2.48145 24.6081 2.48145 25.1195V31.6774C2.48145 32.1888 2.89601 32.6034 3.4074 32.6034H9.96528C10.4767 32.6034 10.8912 32.1888 10.8912 31.6774V25.1195C10.8912 24.6081 10.4767 24.1936 9.96528 24.1936H3.4074ZM2.48145 47.3355C2.48145 46.8241 2.89601 46.4095 3.4074 46.4095H9.96528C10.4767 46.4095 10.8912 46.8241 10.8912 47.3355V53.8933C10.8912 54.4047 10.4767 54.8193 9.96528 54.8193H3.4074C2.89601 54.8193 2.48145 54.4047 2.48145 53.8933V47.3355ZM3.4074 68.6158C2.89601 68.6158 2.48145 69.0303 2.48145 69.5417V76.0996C2.48145 76.611 2.89601 77.0255 3.4074 77.0255H9.96528C10.4767 77.0255 10.8912 76.611 10.8912 76.0996V69.5417C10.8912 69.0303 10.4767 68.6158 9.96528 68.6158H3.4074ZM69.11 2.91326C69.11 2.40187 69.5246 1.9873 70.036 1.9873H76.5938C77.1052 1.9873 77.5198 2.40187 77.5198 2.91326V9.47114C77.5198 9.98253 77.1052 10.3971 76.5938 10.3971H70.036C69.5246 10.3971 69.11 9.98253 69.11 9.47114V2.91326ZM70.036 24.1936C69.5246 24.1936 69.11 24.6081 69.11 25.1195V31.6774C69.11 32.1888 69.5246 32.6034 70.036 32.6034H76.5938C77.1052 32.6034 77.5198 32.1888 77.5198 31.6774V25.1195C77.5198 24.6081 77.1052 24.1936 76.5938 24.1936H70.036ZM69.11 47.3355C69.11 46.8241 69.5246 46.4095 70.036 46.4095H76.5938C77.1052 46.4095 77.5198 46.8241 77.5198 47.3355V53.8933C77.5198 54.4047 77.1052 54.8193 76.5938 54.8193H70.036C69.5246 54.8193 69.11 54.4047 69.11 53.8933V47.3355ZM70.036 68.6158C69.5246 68.6158 69.11 69.0303 69.11 69.5417V76.0996C69.11 76.611 69.5246 77.0255 70.036 77.0255H76.5938C77.1052 77.0255 77.5198 76.611 77.5198 76.0996V69.5417C77.5198 69.0303 77.1052 68.6158 76.5938 68.6158H70.036ZM36.5821 26.6989H43.4096C44.4733 26.6989 45.3355 27.5611 45.3355 28.6248V35.4523C45.3355 36.516 44.4733 37.3783 43.4096 37.3783H36.5821C35.5184 37.3783 34.6561 36.516 34.6561 35.4523V28.6248C34.6561 27.5611 35.5184 26.6989 36.5821 26.6989ZM50.882 39.5161H29.1284C28.0647 39.5161 27.2024 40.3783 27.2024 41.442V50.3881C27.2024 51.4518 28.0647 52.314 29.1284 52.314H50.882C51.9457 52.314 52.808 51.4518 52.808 50.3881V41.442C52.808 40.3783 51.9457 39.5161 50.882 39.5161ZM21.7412 22.1728C21.7412 21.6614 22.1558 21.2469 22.6671 21.2469H57.3344C57.8457 21.2469 58.2603 21.6614 58.2603 22.1728V56.84C58.2603 57.3514 57.8457 57.766 57.3344 57.766H22.6671C22.1558 57.766 21.7412 57.3514 21.7412 56.84V22.1728Z" fill="url(#paint0_linear_2999_8300)"/>
<path fill-rule="evenodd" clip-rule="evenodd" d="M2.48145 2.91326C2.48145 2.40187 2.89601 1.9873 3.4074 1.9873H9.96528C10.4767 1.9873 10.8912 2.40187 10.8912 2.91326V9.47114C10.8912 9.98253 10.4767 10.3971 9.96528 10.3971H3.4074C2.89601 10.3971 2.48145 9.98253 2.48145 9.47114V2.91326ZM3.4074 -0.0126953C1.79144 -0.0126953 0.481445 1.2973 0.481445 2.91326V9.47114C0.481445 11.0871 1.79144 12.3971 3.4074 12.3971H9.96528C11.5812 12.3971 12.8912 11.0871 12.8912 9.47114V7.19704H29.0516C29.5586 7.19704 29.9776 7.61601 29.9776 8.123V19.2469H22.6671C21.0512 19.2469 19.7412 20.5569 19.7412 22.1728V27.4033H12.8912V25.1195C12.8912 23.5036 11.5812 22.1936 9.96528 22.1936H3.4074C1.79144 22.1936 0.481445 23.5036 0.481445 25.1195V31.6774C0.481445 33.2934 1.79144 34.6034 3.4074 34.6034H9.96528C11.5812 34.6034 12.8912 33.2934 12.8912 31.6774V29.4033H19.7412V49.6096H12.8912V47.3355C12.8912 45.7195 11.5812 44.4095 9.96528 44.4095H3.4074C1.79144 44.4095 0.481445 45.7195 0.481445 47.3355V53.8933C0.481445 55.5093 1.79144 56.8193 3.4074 56.8193H9.96528C11.5812 56.8193 12.8912 55.5093 12.8912 53.8933V51.6096H19.7412V56.84C19.7412 58.456 21.0512 59.766 22.6671 59.766H29.9776V70.8899C29.9776 71.3969 29.5586 71.8158 29.0516 71.8158H12.8912V69.5417C12.8912 67.9258 11.5812 66.6158 9.96528 66.6158H3.4074C1.79144 66.6158 0.481445 67.9258 0.481445 69.5417V76.0996C0.481445 77.7155 1.79144 79.0255 3.4074 79.0255H9.96528C11.5812 79.0255 12.8912 77.7155 12.8912 76.0996V73.8158H29.0516C30.6632 73.8158 31.9776 72.5014 31.9776 70.8899V59.766H48.0239V70.8899C48.0239 72.5014 49.3383 73.8158 50.9498 73.8158H67.11V76.0996C67.11 77.7155 68.42 79.0255 70.036 79.0255H76.5938C78.2098 79.0255 79.5198 77.7155 79.5198 76.0996V69.5417C79.5198 67.9258 78.2098 66.6158 76.5938 66.6158H70.036C68.42 66.6158 67.11 67.9258 67.11 69.5417V71.8158H50.9498C50.4428 71.8158 50.0239 71.3969 50.0239 70.8899V59.766H57.3344C58.9503 59.766 60.2603 58.456 60.2603 56.84V51.6096H67.11V53.8933C67.11 55.5093 68.42 56.8193 70.036 56.8193H76.5938C78.2098 56.8193 79.5198 55.5093 79.5198 53.8933V47.3355C79.5198 45.7195 78.2098 44.4095 76.5938 44.4095H70.036C68.42 44.4095 67.11 45.7195 67.11 47.3355V49.6096H60.2603V29.4033H67.11V31.6774C67.11 33.2934 68.42 34.6034 70.036 34.6034H76.5938C78.2098 34.6034 79.5198 33.2934 79.5198 31.6774V25.1195C79.5198 23.5036 78.2098 22.1936 76.5938 22.1936H70.036C68.42 22.1936 67.11 23.5036 67.11 25.1195V27.4033H60.2603V22.1728C60.2603 20.5569 58.9503 19.2469 57.3344 19.2469H50.0239V8.123C50.0239 7.61601 50.4428 7.19704 50.9498 7.19704H67.11V9.47114C67.11 11.0871 68.42 12.3971 70.036 12.3971H76.5938C78.2098 12.3971 79.5198 11.0871 79.5198 9.47114V2.91326C79.5198 1.2973 78.2098 -0.0126953 76.5938 -0.0126953H70.036C68.42 -0.0126953 67.11 1.2973 67.11 2.91326V5.19704H50.9498C49.3383 5.19704 48.0239 6.51144 48.0239 8.123V19.2469H31.9776V8.123C31.9776 6.51144 30.6632 5.19704 29.0516 5.19704H12.8912V2.91326C12.8912 1.2973 11.5812 -0.0126953 9.96528 -0.0126953H3.4074ZM3.4074 24.1936C2.89601 24.1936 2.48145 24.6081 2.48145 25.1195V31.6774C2.48145 32.1888 2.89601 32.6034 3.4074 32.6034H9.96528C10.4767 32.6034 10.8912 32.1888 10.8912 31.6774V25.1195C10.8912 24.6081 10.4767 24.1936 9.96528 24.1936H3.4074ZM2.48145 47.3355C2.48145 46.8241 2.89601 46.4095 3.4074 46.4095H9.96528C10.4767 46.4095 10.8912 46.8241 10.8912 47.3355V53.8933C10.8912 54.4047 10.4767 54.8193 9.96528 54.8193H3.4074C2.89601 54.8193 2.48145 54.4047 2.48145 53.8933V47.3355ZM3.4074 68.6158C2.89601 68.6158 2.48145 69.0303 2.48145 69.5417V76.0996C2.48145 76.611 2.89601 77.0255 3.4074 77.0255H9.96528C10.4767 77.0255 10.8912 76.611 10.8912 76.0996V69.5417C10.8912 69.0303 10.4767 68.6158 9.96528 68.6158H3.4074ZM69.11 2.91326C69.11 2.40187 69.5246 1.9873 70.036 1.9873H76.5938C77.1052 1.9873 77.5198 2.40187 77.5198 2.91326V9.47114C77.5198 9.98253 77.1052 10.3971 76.5938 10.3971H70.036C69.5246 10.3971 69.11 9.98253 69.11 9.47114V2.91326ZM70.036 24.1936C69.5246 24.1936 69.11 24.6081 69.11 25.1195V31.6774C69.11 32.1888 69.5246 32.6034 70.036 32.6034H76.5938C77.1052 32.6034 77.5198 32.1888 77.5198 31.6774V25.1195C77.5198 24.6081 77.1052 24.1936 76.5938 24.1936H70.036ZM69.11 47.3355C69.11 46.8241 69.5246 46.4095 70.036 46.4095H76.5938C77.1052 46.4095 77.5198 46.8241 77.5198 47.3355V53.8933C77.5198 54.4047 77.1052 54.8193 76.5938 54.8193H70.036C69.5246 54.8193 69.11 54.4047 69.11 53.8933V47.3355ZM70.036 68.6158C69.5246 68.6158 69.11 69.0303 69.11 69.5417V76.0996C69.11 76.611 69.5246 77.0255 70.036 77.0255H76.5938C77.1052 77.0255 77.5198 76.611 77.5198 76.0996V69.5417C77.5198 69.0303 77.1052 68.6158 76.5938 68.6158H70.036ZM36.5821 26.6989H43.4096C44.4733 26.6989 45.3355 27.5611 45.3355 28.6248V35.4523C45.3355 36.516 44.4733 37.3783 43.4096 37.3783H36.5821C35.5184 37.3783 34.6561 36.516 34.6561 35.4523V28.6248C34.6561 27.5611 35.5184 26.6989 36.5821 26.6989ZM50.882 39.5161H29.1284C28.0647 39.5161 27.2024 40.3783 27.2024 41.442V50.3881C27.2024 51.4518 28.0647 52.314 29.1284 52.314H50.882C51.9457 52.314 52.808 51.4518 52.808 50.3881V41.442C52.808 40.3783 51.9457 39.5161 50.882 39.5161ZM21.7412 22.1728C21.7412 21.6614 22.1558 21.2469 22.6671 21.2469H57.3344C57.8457 21.2469 58.2603 21.6614 58.2603 22.1728V56.84C58.2603 57.3514 57.8457 57.766 57.3344 57.766H22.6671C22.1558 57.766 21.7412 57.3514 21.7412 56.84V22.1728Z" fill="#54375F" fill-opacity="0.25"/>
</g>
<defs>
<linearGradient id="paint0_linear_2999_8300" x1="79.5198" y1="-0.0126953" x2="0.481569" y2="79.0257" gradientUnits="userSpaceOnUse">
<stop stop-color="#DCCDC1"/>
<stop offset="1" stop-color="#A4ADD7"/>
</linearGradient>
<clipPath id="clip0_2999_8300">
<rect width="80" height="80" fill="white"/>
</clipPath>
</defs>
</svg>
