<svg xmlns="http://www.w3.org/2000/svg" width="91" height="46" viewBox="0 0 91 46" fill="none"><path d="M20.0242 46.0029C19.6172 45.9587 19.2103 45.9145 18.8063 45.8732C14.1592 45.3985 10.1076 43.579 6.68711 40.4092C3.28721 37.257 1.11991 33.3824 0.341509 28.806C-0.755491 22.3719 0.792609 16.6071 4.95331 11.5678C6.35981 9.8634 8.03761 8.457 9.91601 7.2922C10.0162 7.2303 10.1106 7.1535 10.2197 7.1122C10.4939 7.009 10.7416 7.0651 10.892 7.3275C11.0453 7.5899 10.9746 7.8289 10.7387 8.0147C10.6472 8.0854 10.5381 8.1413 10.4408 8.2033C5.23341 11.553 2.09301 16.2739 1.22901 22.4072C0.0437086 30.8376 4.39011 38.9968 11.986 42.8302C23.4211 48.6008 37.3508 42.0576 40.2376 29.5639C42.1602 21.2426 38.5598 12.644 31.2765 8.1621C31.2263 8.1326 31.1733 8.103 31.1261 8.0706C30.8342 7.8789 30.7398 7.5782 30.8931 7.3188C31.0465 7.0563 31.3708 6.9737 31.6628 7.1742C32.5002 7.7462 33.3642 8.2858 34.1397 8.9316C38.3062 12.3905 40.8569 16.8047 41.5705 22.1714C42.4403 28.7057 40.621 34.4675 36.1625 39.3447C33.8566 41.8688 31.0465 43.6705 27.8176 44.8057C27.7528 44.8293 27.6908 44.8588 27.6289 44.9413H27.9503C41.8447 44.9413 55.739 44.9472 69.6334 44.9413C79.01 44.9355 87.016 38.5044 89.068 29.3545C91.436 18.807 84.701 8.1413 74.166 5.7411C72.62 5.3902 71.052 5.2281 69.4683 5.2281C56.8831 5.2281 44.298 5.2281 31.7129 5.2281C31.6657 5.2281 31.6185 5.2281 31.5714 5.2281C31.0494 5.2281 30.8165 5.063 30.8194 4.6973C30.8224 4.3464 31.0701 4.1784 31.592 4.1784C44.2597 4.1784 56.9274 4.1725 69.5951 4.1784C79.712 4.1843 88.193 11.152 90.189 21.098C90.354 21.9266 90.41 22.7789 90.519 23.6193C90.531 23.7225 90.56 23.8198 90.581 23.923V26.2584C90.56 26.3586 90.528 26.4588 90.519 26.559C90.46 27.0987 90.428 27.6412 90.345 28.1749C89.546 33.2615 87.223 37.5225 83.333 40.8988C80.007 43.7856 76.126 45.4339 71.736 45.8732C71.341 45.9116 70.949 45.9587 70.553 46.0029C53.7103 46.0029 36.8672 46.0029 20.0242 46.0029Z" fill="black"></path><path d="M14.6457 0V4.1194C15.206 3.966 15.7485 3.7419 16.3088 3.6829C18.0456 3.5001 19.1012 4.2756 19.4787 5.98C19.747 7.1801 19.7352 8.395 19.4344 9.5892C19.0541 11.1019 17.9778 11.8303 16.3796 11.7064C15.551 11.6415 15.1618 11.5088 14.2241 10.9486C14.0914 11.7153 13.5252 11.5531 12.9591 11.5147V11.1108C12.9591 7.5487 12.9591 3.9896 12.9591 0.4276C12.9591 0.286 12.9532 0.1445 12.9473 0.00290012C13.5134 0.00290012 14.0796 0.00290012 14.6457 0.00290012V0ZM17.9571 7.8259C17.9277 7.3659 17.9159 7.0356 17.8834 6.7083C17.8657 6.5344 17.8185 6.3604 17.7655 6.1923C17.5591 5.52 17.1227 5.1337 16.4268 5.1485C15.9314 5.1603 15.4389 5.3106 14.9494 5.4168C14.7165 5.4669 14.631 5.6262 14.6369 5.8856C14.6546 6.9236 14.6457 7.9615 14.6457 8.9965C14.6457 9.8959 14.7342 10.005 15.6306 10.179C15.781 10.2085 15.9343 10.2262 16.0847 10.2409C16.9782 10.3264 17.6092 9.9018 17.8068 9.026C17.9041 8.5926 17.9218 8.1414 17.9601 7.8229L17.9571 7.8259Z" fill="black"></path><path d="M20.906 16.4881C21.4043 15.978 21.8348 15.4355 22.3597 15.0108C26.2343 11.8852 32.0197 13.9375 33.1078 18.8176C33.3643 19.9617 33.4528 21.1324 33.1019 22.2765C32.9574 22.7542 32.6979 23.2053 32.4473 23.6417C28.6493 30.2321 24.8396 36.8166 21.0357 43.404C21.0003 43.466 20.962 43.522 20.8971 43.6252C20.8146 43.4955 20.7468 43.3922 20.6848 43.289C16.8397 36.6574 13.0064 30.0169 9.13767 23.3999C8.45947 22.2411 8.39457 21.0262 8.52137 19.7789C8.84567 16.5943 11.0514 14.1764 14.2006 13.6367C16.7218 13.2033 18.8419 14.026 20.5109 15.981C20.6553 16.149 20.7821 16.3319 20.906 16.4911V16.4881ZM11.4436 22.5949C11.5143 22.7365 11.5556 22.8308 11.6057 22.9222C13.5755 26.4342 15.557 29.9402 17.5091 33.461C18.1991 34.7083 19.2783 35.2449 20.6288 35.3157C21.9587 35.3865 23.1205 34.7053 23.5304 33.6467C23.9137 32.6589 23.8193 31.1521 22.6723 30.2056C22.3715 29.9579 22.0648 29.722 21.7493 29.4949C21.0416 28.9848 20.2927 28.5278 19.6262 27.9734C18.3583 26.9207 17.8216 25.5555 18.1253 23.913C18.2079 23.4678 18.373 23.0402 18.5057 22.5949H11.4436ZM30.2977 22.6244C30.221 22.6008 30.1974 22.589 30.1768 22.589C27.6173 22.589 25.0578 22.5772 22.5012 22.589C21.6491 22.5949 20.8824 23.2112 20.5964 24.0428C20.3103 24.8714 20.5109 25.4965 21.2657 26.1334C21.4014 26.2484 21.54 26.3575 21.6874 26.4548C22.3007 26.8735 22.9229 27.2775 23.5274 27.708C24.471 28.3833 25.2583 29.1971 25.7242 30.2852C25.7625 30.3737 25.8097 30.4621 25.8687 30.583C27.3548 27.9144 28.8174 25.2812 30.3006 22.6215L30.2977 22.6244ZM19.753 20.0915C19.6557 17.6411 17.4943 15.7716 14.982 15.919C12.8678 16.0429 10.8302 18.1601 10.9777 20.0915H19.756H19.753ZM30.9316 20.0885C30.9257 18.2014 29.1506 15.7569 26.2845 15.9102C23.6601 16.0517 22.1268 18.4107 22.1592 20.0885H30.9346H30.9316ZM21.8761 37.7484H19.9093C20.2455 38.347 20.561 38.9073 20.8971 39.5088C21.2392 38.8896 21.5518 38.3293 21.8761 37.7484Z" fill="black"></path><path d="M25.4867 5.42562C24.6935 5.31652 23.9298 5.19852 23.1631 5.11892C22.9243 5.09532 22.6678 5.15142 22.4319 5.21622C21.963 5.34302 21.7743 5.62022 21.7831 6.09492C21.789 6.51072 21.9512 6.70832 22.4584 6.81152C22.9774 6.91762 23.5081 6.95012 24.0242 7.06212C25.3128 7.34232 25.7934 7.89072 25.8376 9.08202C25.8819 10.3234 25.3098 11.1903 24.1628 11.5117C22.8889 11.8715 21.618 11.7506 20.3678 11.3702C20.2823 11.3437 20.182 11.1992 20.1761 11.1019C20.1555 10.692 20.1673 10.2792 20.1673 9.88402C20.8248 10.002 21.4617 10.1642 22.1105 10.2173C22.5705 10.2556 23.0511 10.1907 23.5081 10.0993C23.9564 10.0108 24.1893 9.66882 24.1834 9.26482C24.1775 8.81372 23.9623 8.53942 23.4669 8.43922C22.9715 8.33892 22.4673 8.28882 21.966 8.20922C21.8038 8.18262 21.6446 8.13252 21.4883 8.08242C20.3589 7.70792 20.0817 7.02382 20.123 6.00652C20.1702 4.78572 20.8514 4.01322 22.0515 3.76842C23.0953 3.55322 24.1362 3.61802 25.1624 3.90112C25.4012 3.96602 25.5103 4.07512 25.4926 4.34342C25.4661 4.72672 25.4867 5.11302 25.4867 5.42262V5.42562Z" fill="black"></path><path d="M28.7966 10.2238V11.5831C27.564 11.8632 26.5703 11.188 26.5379 9.96716C26.4848 7.97676 26.5114 5.98636 26.5055 3.99606C26.5055 3.95176 26.5261 3.90756 26.5408 3.85156H28.201V4.28496C28.201 6.01586 28.201 7.74976 28.201 9.48066C28.201 10.0291 28.2599 10.0999 28.7966 10.2238Z" fill="black"></path><path d="M50.1319 10.7385C50.1495 10.5114 50.1525 10.2726 50.1879 10.0396C50.409 8.65374 51.9748 7.98734 53.1543 8.77174C53.576 9.05184 53.7706 9.47054 53.8561 9.95124C53.9681 10.5852 53.9681 11.2191 53.7853 11.8413C53.6113 12.4281 53.2339 12.8144 52.6206 12.95C51.1728 13.2714 50.2822 12.6168 50.1584 11.1336C50.1466 11.0039 50.1407 10.8741 50.1289 10.7385H50.1319ZM53.2899 10.7532C53.2192 10.4023 53.1838 10.0337 53.0658 9.69764C52.9037 9.23764 52.4997 9.09614 52.0456 9.09614C51.5974 9.09614 51.1875 9.21704 51.0106 9.67404C50.7363 10.3788 50.7393 11.1012 51.0017 11.8089C51.1787 12.2895 51.5974 12.4134 52.0603 12.4104C52.5115 12.4075 52.9154 12.2659 53.0717 11.7971C53.1808 11.4668 53.2192 11.1159 53.2929 10.7532H53.2899Z" fill="black"></path><path d="M51.916 17.6989C51.9602 17.3893 51.9897 16.95 52.0959 16.5312C52.264 15.8737 52.721 15.5788 53.4788 15.567C54.275 15.5523 54.7527 15.8236 54.9414 16.4723C55.2068 17.3834 55.1979 18.3123 54.9296 19.2264C54.7999 19.6687 54.4844 19.9311 54.0332 20.0373C52.8802 20.3086 52.1667 19.8338 51.9956 18.6691C51.9544 18.3889 51.9485 18.1059 51.916 17.696V17.6989ZM54.4667 17.8198C54.4283 17.4571 54.4195 17.0915 54.3428 16.7377C54.2573 16.3425 53.9506 16.1479 53.529 16.1509C53.1132 16.1509 52.7652 16.3307 52.7358 16.7082C52.6768 17.4512 52.6738 18.2061 52.7358 18.9492C52.7682 19.3443 53.122 19.5271 53.5496 19.5212C53.9742 19.5153 54.2632 19.3237 54.3487 18.9138C54.4224 18.56 54.4313 18.1914 54.4696 17.8228L54.4667 17.8198Z" fill="black"></path><path d="M58.7789 17.8501C58.714 18.2895 58.6845 18.7288 58.5754 19.1446C58.4073 19.7874 57.9296 20.0882 57.1777 20.097C56.4022 20.1059 55.9039 19.8139 55.724 19.1711C55.4733 18.2806 55.4763 17.3724 55.724 16.4819C55.9068 15.8361 56.3963 15.5589 57.1866 15.5707C57.9444 15.5825 58.4132 15.8774 58.5783 16.5261C58.6875 16.9566 58.714 17.4078 58.7789 17.8501ZM58.0948 17.8412C58.0535 17.4756 58.0417 17.1188 57.9709 16.7768C57.8795 16.3433 57.5935 16.1487 57.1512 16.1516C56.7089 16.1516 56.3668 16.3492 56.3344 16.7738C56.2783 17.4815 56.2842 18.2039 56.3403 18.9116C56.3727 19.3215 56.7 19.5132 57.1276 19.522C57.5699 19.5309 57.8707 19.3363 57.9621 18.9175C58.0387 18.5637 58.0535 18.1951 58.0948 17.8442V17.8412Z" fill="black"></path><path d="M60.6611 8.58012V9.15812H58.7592V10.3759H60.3014V10.9774H58.7592V12.3338H60.6552V12.9265H58.0898V8.57422H60.6611V8.58012Z" fill="black"></path><path d="M46.135 28.6285C46.0967 29.4807 46.0613 30.3358 46.023 31.2057H45.4922C45.5453 30.091 45.5983 28.9794 45.6514 27.8058C45.8696 27.8058 46.079 27.7792 46.2795 27.8176C46.3709 27.8353 46.4682 27.968 46.5065 28.0712C46.7365 28.6963 46.9518 29.3303 47.2113 30.0674C47.4236 29.4541 47.6005 28.941 47.7774 28.4309C47.9268 27.9945 48.2561 27.792 48.7653 27.8235C48.8183 28.9381 48.8714 30.0557 48.9274 31.2027H48.3967C48.3583 30.3653 48.32 29.5249 48.2817 28.6845C48.2581 28.6786 48.2315 28.6727 48.208 28.6668C48.0989 28.9646 47.9898 29.2595 47.8807 29.5573C47.804 29.7667 47.7067 29.9731 47.6595 30.1883C47.571 30.5805 47.3764 30.7663 46.9105 30.5953C46.6835 29.9701 46.4387 29.2949 46.194 28.6167C46.1733 28.6196 46.1557 28.6255 46.135 28.6285Z" fill="black"></path><path d="M46.9432 12.9561C46.9875 12.6612 47.0111 12.499 47.0258 12.3899C47.5064 12.3899 47.9517 12.3988 48.397 12.384C48.5356 12.3811 48.7095 12.3634 48.798 12.2808C48.9543 12.1275 49.143 11.927 49.1548 11.7353C49.1636 11.5643 48.9985 11.3048 48.8363 11.2134C48.5238 11.0365 48.1552 10.9598 47.8161 10.8271C47.4062 10.6708 47.0671 10.4349 46.958 9.96901C46.8076 9.32621 47.1644 8.73061 47.819 8.56541C48.4176 8.41511 49.0073 8.50941 49.6354 8.63621C49.6148 8.81901 49.5941 8.98711 49.5765 9.11981C49.0958 9.11981 48.6535 9.10511 48.2112 9.12571C47.9281 9.13751 47.6745 9.23781 47.6214 9.57391C47.5713 9.91601 47.763 10.1076 48.049 10.2167C48.3557 10.3347 48.6741 10.4231 48.9808 10.544C49.6354 10.8006 49.9008 11.2104 49.8418 11.8356C49.7829 12.4725 49.432 12.8765 48.7302 12.9531C48.1581 13.0151 47.5713 12.959 46.9432 12.9531V12.9561Z" fill="black"></path><path d="M45.6453 20.0089C45.5362 19.6492 45.663 19.4339 45.9107 19.2128C46.3589 18.8147 46.7776 18.3842 47.1845 17.9448C47.3497 17.7679 47.4794 17.5438 47.5767 17.3227C47.8657 16.6474 47.4971 16.1314 46.7599 16.1815C46.4149 16.2051 46.0729 16.3024 45.6984 16.3702C45.6453 16.2198 45.5893 16.0606 45.5273 15.8778C46.0994 15.6271 46.6655 15.4945 47.2641 15.6065C48.1311 15.7657 48.5468 16.4646 48.2903 17.3197C48.0957 17.9684 47.615 18.4107 47.1491 18.8619C46.9752 19.03 46.7864 19.1862 46.5152 19.428H48.3994V20.0089H45.6453Z" fill="black"></path><path d="M63.498 34.5438C64.3119 34.4996 65.1552 34.2106 65.7863 34.9684C66.2109 35.4815 66.2345 36.8851 65.8275 37.4395C65.2142 38.2769 64.3237 37.9467 63.498 37.9555V34.5409V34.5438ZM64.1497 37.3952C64.9341 37.469 65.2997 37.3127 65.3646 36.832C65.4177 36.4428 65.4177 36.0329 65.3616 35.6408C65.2968 35.1867 64.7159 34.8947 64.2824 35.0569C64.2234 35.0776 64.1556 35.1719 64.1556 35.2309C64.1468 35.9474 64.1497 36.664 64.1497 37.3923V37.3952Z" fill="black"></path><path d="M51.4144 37.9179H50.7598V34.5062C51.2758 34.5062 51.78 34.4679 52.2784 34.518C52.7944 34.5681 53.0391 34.8306 53.1305 35.2758C53.2249 35.7535 53.0509 36.1722 52.6499 36.4317C52.6116 36.4553 52.5732 36.4819 52.5084 36.5261C52.7561 36.9861 53.0008 37.4343 53.2485 37.8913C52.7963 37.9719 52.472 37.8147 52.2754 37.4195C52.1928 37.2515 52.1073 37.0834 52.0277 36.9124C51.8655 36.5674 51.8685 36.5644 51.4173 36.6204V37.9179H51.4144ZM51.4085 36.1015C51.6532 36.0838 51.8596 36.0808 52.0631 36.0513C52.3196 36.016 52.4818 35.8449 52.4612 35.5972C52.4494 35.4321 52.355 35.1756 52.24 35.1372C51.9982 35.0606 51.721 35.096 51.4586 35.0989C51.4409 35.0989 51.4114 35.1992 51.4085 35.2522C51.4026 35.5206 51.4085 35.7889 51.4085 36.0985V36.1015Z" fill="black"></path><path d="M63.9246 9.11798C63.4676 9.11798 63.0459 9.10028 62.6272 9.12388C62.1348 9.15038 61.8252 9.42758 61.6954 9.89938C61.545 10.4567 61.5391 11.0199 61.6807 11.5772C61.8311 12.1758 62.2291 12.4589 62.8572 12.4029C63.217 12.3704 63.5708 12.2731 63.9748 12.1994C64.022 12.3233 64.0809 12.4825 64.1517 12.6771C63.3909 13.0251 62.6361 13.1784 61.8605 12.8363C61.1853 12.5356 60.9759 11.9104 60.9376 11.2411C60.9111 10.7752 60.9258 10.2916 61.0172 9.83748C61.1823 9.02948 61.6895 8.58718 62.5093 8.51938C62.928 8.48398 63.3555 8.53708 63.7743 8.58128C64.0161 8.60788 64.0249 8.67858 63.9217 9.12098L63.9246 9.11798Z" fill="black"></path><path d="M57.7443 25.6119H57.2607C57.2607 25.0929 57.2666 24.5798 57.2607 24.0668C57.2548 23.6392 57.0573 23.4947 56.6503 23.5802C56.4115 23.6303 56.2965 23.7365 56.3142 24.0137C56.3437 24.5297 56.323 25.0488 56.323 25.5913H55.8276C55.8276 25.0871 55.8335 24.5857 55.8276 24.0816C55.8218 23.6422 55.6124 23.4859 55.1907 23.5802C54.9843 23.6274 54.8723 23.7247 54.8811 23.9665C54.8988 24.5061 54.887 25.0457 54.887 25.603H54.3887V23.1291C54.5567 23.1762 54.6983 23.2175 54.9135 23.2795C55.2733 23.0789 55.7215 22.9728 56.1107 23.3207C56.4498 23.247 56.7506 23.1291 57.0543 23.1232C57.4612 23.1143 57.7237 23.3738 57.7443 23.7837C57.7738 24.3823 57.7502 24.9809 57.7502 25.6119H57.7443Z" fill="black"></path><path d="M61.0156 37.9044V34.5547H63.1063V35.0943H61.6968V35.8698H62.8497V36.4359H61.6879V37.3382H63.0974V37.9044H61.0156Z" fill="black"></path><path d="M48.2891 34.5498H50.3679V35.1042H48.9614V35.8797H50.1114V36.4311H48.9525V37.3334H50.3591V37.9025H48.2891V34.5469V34.5498Z" fill="black"></path><path d="M64.1662 31.2046H63.6767C63.6767 30.7092 63.6797 30.2286 63.6767 29.748C63.6708 29.2172 63.4231 29.0491 62.9307 29.2201C62.7538 29.2821 62.7037 29.3735 62.7066 29.5534C62.7184 30.093 62.7096 30.6326 62.7096 31.1987H62.2142C62.2142 30.6798 62.2319 30.1755 62.2053 29.6713C62.1965 29.5091 62.1021 29.2555 61.9871 29.2142C61.8131 29.1523 61.5802 29.2142 61.3856 29.2762C61.3266 29.2939 61.2912 29.4708 61.2883 29.574C61.2794 30.1136 61.2853 30.6503 61.2853 31.2046H60.8047V28.7159C60.9698 28.7719 61.1114 28.8191 61.306 28.884C61.6923 28.6717 62.1405 28.5862 62.5326 28.9371C62.8098 28.8575 63.0487 28.7454 63.2964 28.7277C63.836 28.6864 64.1308 28.9341 64.1603 29.4708C64.1928 30.034 64.1692 30.5972 64.1692 31.2017L64.1662 31.2046Z" fill="black"></path><path d="M56.4323 32.19C56.453 32.019 56.4648 31.904 56.4795 31.789C56.7213 31.789 56.9543 31.789 57.1843 31.789C57.6384 31.7831 57.7209 31.6828 57.6826 31.1904C57.4703 31.2199 57.258 31.2789 57.0457 31.2789C56.6417 31.2789 56.3291 31.0813 56.2761 30.6862C56.2141 30.2173 56.223 29.7278 56.2908 29.259C56.338 28.9199 56.6329 28.74 56.9955 28.7253C57.0309 28.7253 57.0663 28.7253 57.1017 28.7253C58.1986 28.7105 58.2075 28.7194 58.2104 29.8045C58.2104 30.3117 58.2104 30.8189 58.2104 31.326C58.2075 31.9659 58.0011 32.2048 57.3582 32.249C57.0693 32.2696 56.7744 32.2165 56.4382 32.193L56.4323 32.19ZM57.7091 30.005C57.7091 29.8045 57.718 29.604 57.7062 29.4064C57.7003 29.3357 57.6649 29.2354 57.6118 29.203C57.2875 29.0024 56.7714 29.2089 56.7243 29.5863C56.683 29.893 56.7007 30.2203 56.7538 30.5269C56.8127 30.8719 57.1017 30.8837 57.3907 30.8601C57.7003 30.8365 57.7357 30.6449 57.715 30.3942C57.7032 30.2645 57.715 30.1348 57.715 30.005H57.7091Z" fill="black"></path><path d="M49.3465 20.0175C49.5824 19.3393 49.777 18.6994 50.0247 18.0802C50.2724 17.4639 50.5791 16.8681 50.8769 16.2194H48.7656V15.6562H51.6672C51.5787 15.9748 51.5492 16.2786 51.4165 16.5322C50.8858 17.5495 50.4582 18.6021 50.1722 19.7167C50.1456 19.817 50.1132 19.9143 50.0808 20.0175H49.3436H49.3465Z" fill="black"></path><path d="M28.4458 1.58461C28.4399 2.2246 27.9622 2.6993 27.3282 2.6905C26.7267 2.6846 26.2549 2.1921 26.252 1.57281C26.252 0.944713 26.7473 0.434612 27.3577 0.437512C27.9711 0.443412 28.4517 0.947712 28.4458 1.58161V1.58461Z" fill="black"></path><path d="M47.786 34.4793C47.7742 34.7359 47.7654 34.8951 47.7566 35.0484C47.4587 35.0484 47.1816 35.0396 46.9044 35.0484C46.4149 35.0661 46.179 35.2489 46.1141 35.7325C46.0699 36.0657 46.0699 36.4166 46.1141 36.7498C46.1849 37.2511 46.5092 37.4752 47.0164 37.4221C47.2494 37.3985 47.4794 37.3396 47.7418 37.2894C47.7949 37.4339 47.8539 37.5843 47.9069 37.7318C46.8867 38.4601 45.545 37.891 45.4153 36.6732C45.3769 36.3252 45.3887 35.9655 45.4389 35.6205C45.5391 34.9157 45.9578 34.5353 46.6685 34.4823C47.0253 34.4557 47.388 34.4764 47.7831 34.4764L47.786 34.4793Z" fill="black"></path><path d="M59.4172 34.5547V35.1002H57.9457V35.9376H59.14V36.5097H57.9281V37.9103H57.2734V34.5547H59.4142H59.4172Z" fill="black"></path><path d="M70.787 22.1955C70.775 22.3813 70.766 22.4963 70.755 22.6526C70.474 22.6378 70.209 22.6084 69.9466 22.6143C69.6576 22.6231 69.3037 22.5877 69.2241 22.9681C69.1416 23.375 69.4895 23.4664 69.7785 23.5726C69.9761 23.6463 70.185 23.6994 70.377 23.7819C70.811 23.9736 71.008 24.3127 70.967 24.7668C70.926 25.2091 70.66 25.5571 70.197 25.6102C69.7166 25.6662 69.2241 25.6219 68.7022 25.6219C68.7228 25.4273 68.7346 25.3035 68.7494 25.1561C69.0619 25.1708 69.3509 25.2032 69.6399 25.1973C69.8139 25.1944 70.011 25.1796 70.147 25.0882C70.274 25.0057 70.404 24.8199 70.407 24.6784C70.407 24.5398 70.286 24.3363 70.159 24.2685C69.8817 24.1181 69.5662 24.0444 69.2743 23.9235C68.9469 23.7908 68.7228 23.5696 68.6875 23.1952C68.6344 22.6467 68.947 22.2162 69.5131 22.1661C69.9259 22.1277 70.348 22.1808 70.79 22.1926L70.787 22.1955Z" fill="black"></path><path d="M59.8568 20.0063V16.3263C59.5501 16.4384 59.2789 16.5386 58.9663 16.6536C58.8985 16.5239 58.8306 16.3912 58.7422 16.2231C59.3142 15.9695 59.789 15.5243 60.4937 15.6629V20.0093H59.8568V20.0063Z" fill="black"></path><path d="M53.2832 34.5547H55.7395V35.1031H54.8578V37.9073H54.1767V35.1208H53.2832V34.5547Z" fill="black"></path><path d="M65.014 24.3869C65.0022 25.3865 64.4213 25.876 63.5308 25.6313C63.2241 25.5487 63.0118 25.3659 62.9057 25.0681C62.7464 24.6316 62.7435 24.1923 62.8909 23.7559C63.0472 23.2959 63.4158 23.0836 63.979 23.1072C64.498 23.1307 64.84 23.3873 64.9521 23.862C64.9934 24.0331 64.9963 24.21 65.017 24.384L65.014 24.3869ZM63.2831 24.3722C63.3126 24.5461 63.292 24.7525 63.3834 24.8823C63.4925 25.0327 63.69 25.1949 63.8611 25.2066C64.0321 25.2184 64.3034 25.0975 64.38 24.956C64.5776 24.5933 64.5628 24.1775 64.3741 23.806C64.3181 23.694 64.1441 23.5966 64.0114 23.5731C63.5485 23.4846 63.3126 23.7618 63.2861 24.3751L63.2831 24.3722Z" fill="black"></path><path d="M59.487 24.1381C59.4929 23.5867 59.4339 23.4835 58.2662 23.5955C58.2456 23.4835 58.2249 23.3714 58.1954 23.2181C58.6613 23.0913 59.1331 23.0117 59.5695 23.2092C59.7553 23.2948 59.9499 23.5631 59.9676 23.7666C60.0207 24.371 59.9853 24.9844 59.9853 25.5358C59.5961 25.5859 59.2481 25.6537 58.8943 25.6744C58.3959 25.7039 58.0568 25.4001 58.0362 24.9431C58.0156 24.4978 58.3045 24.1853 58.794 24.144C59.0152 24.1263 59.2363 24.141 59.4811 24.141L59.487 24.1381ZM59.5931 24.548C59.1508 24.5214 58.8205 24.4035 58.6141 24.716C58.5493 24.8134 58.6053 25.1289 58.6672 25.1466C58.8707 25.2114 59.1479 25.2645 59.313 25.1701C59.4575 25.0905 59.487 24.8045 59.5931 24.545V24.548Z" fill="black"></path><path d="M60.4574 30.1878H59.0184C59.0272 30.8129 59.2661 30.9043 60.3217 30.7156C60.3571 30.8188 60.3925 30.9279 60.4456 31.0754C59.9708 31.2847 59.502 31.3879 59.0213 31.1579C58.582 30.9486 58.467 30.5328 58.4729 30.0934C58.4758 29.8192 58.52 29.5273 58.6233 29.2737C58.8031 28.8196 59.2395 28.6368 59.7644 28.7311C60.1448 28.8019 60.4072 29.1027 60.4544 29.5627C60.475 29.7573 60.4574 29.9548 60.4574 30.1907V30.1878ZM59.9826 29.7779C59.9679 29.3179 59.8293 29.141 59.5108 29.1439C59.2042 29.1469 59.039 29.3445 59.0243 29.7484C59.0656 29.7573 59.1068 29.775 59.1511 29.775C59.4194 29.775 59.6907 29.775 59.9826 29.775V29.7779Z" fill="black"></path><path d="M52.5079 24.4063C52.502 25.3882 51.8975 25.8807 51.007 25.63C50.5411 25.4973 50.317 25.1405 50.2845 24.4682C50.2344 23.4863 50.7593 22.9791 51.6616 23.1325C52.2248 23.2268 52.5108 23.6603 52.5079 24.4093V24.4063ZM52.0007 24.3886C52.0007 23.8932 51.8356 23.6131 51.5142 23.56C51.1338 23.4981 50.8802 23.6839 50.8153 24.0731C50.7062 24.7159 50.8802 25.1523 51.2724 25.2172C51.3078 25.2231 51.3431 25.2231 51.3785 25.2231C51.8002 25.229 52.0036 24.9577 52.0036 24.3857L52.0007 24.3886Z" fill="black"></path><path d="M73.1073 24.5752H71.7003C71.6713 25.1915 71.8663 25.2711 73.0073 25.1236C73.0393 25.2268 73.0753 25.336 73.1073 25.4362C72.4763 25.8549 71.6473 25.6692 71.3883 25.3094C71.0133 24.7904 71.0663 23.7554 71.5323 23.3456C71.8573 23.0595 72.2433 23.0301 72.6233 23.1922C73.0693 23.381 73.1453 23.7967 73.1603 24.2213C73.1633 24.3245 73.1313 24.4277 73.1103 24.5722L73.1073 24.5752ZM72.6653 24.1476C72.6293 23.7142 72.4823 23.5372 72.1903 23.5402C71.8863 23.5402 71.7063 23.7613 71.7063 24.1476H72.6623H72.6653Z" fill="black"></path><path d="M66.4141 31.1659C65.9895 31.1983 65.6061 31.2897 65.2405 31.2396C64.6036 31.1541 64.2851 30.4877 64.4385 29.6768C64.5505 29.0752 64.8601 28.7509 65.3526 28.7184C66.0072 28.6771 66.3728 28.9986 66.4141 29.6561C66.4229 29.8153 66.4023 29.9775 66.3935 30.178H64.9722C64.9604 30.8091 65.2287 30.9123 66.2755 30.7088C66.3109 30.8209 66.3463 30.9388 66.4141 31.1629V31.1659ZM65.9305 29.7564C65.9158 29.3141 65.7772 29.1401 65.4587 29.143C65.1491 29.146 64.9869 29.3465 64.9722 29.7564H65.9335H65.9305Z" fill="black"></path><path d="M50.6538 29.7349C50.6744 29.1393 50.5594 29.0892 49.4625 29.213C49.436 29.098 49.4065 28.9801 49.3681 28.8208C49.834 28.6911 50.2822 28.6616 50.7275 28.7884C51.0224 28.871 51.1551 29.1128 51.161 29.4076C51.1698 29.9944 51.1639 30.5812 51.1639 31.1592C51.1344 31.1828 51.1108 31.2093 51.099 31.2064C50.7776 31.109 50.4769 31.2064 50.1584 31.2653C49.6306 31.3567 49.2502 31.0412 49.2207 30.5576C49.1912 30.0829 49.4979 29.7703 50.0316 29.7379C50.2292 29.7261 50.4267 29.7379 50.6508 29.7379L50.6538 29.7349ZM50.6744 30.1448C50.3235 30.1183 49.9992 30.0151 49.7898 30.3158C49.7249 30.4073 49.7633 30.7021 49.8193 30.7198C50.0198 30.7935 50.2645 30.8466 50.4651 30.7994C50.8189 30.7139 50.6125 30.3984 50.6715 30.1419L50.6744 30.1448Z" fill="black"></path><path d="M55.8305 31.1401C55.4442 31.1902 55.0904 31.2551 54.7336 31.2757C54.2471 31.3022 53.9256 31.0133 53.8932 30.5651C53.8608 30.1139 54.135 29.7984 54.6274 29.7453C54.8486 29.7217 55.0727 29.7424 55.288 29.7424C55.4 29.1851 55.3263 29.1526 54.1144 29.2028C54.0937 29.0848 54.0731 28.9639 54.0377 28.7575C54.4947 28.7575 54.9135 28.7251 55.3233 28.7693C55.6182 28.7988 55.8099 29.0376 55.8217 29.3354C55.8453 29.9547 55.8276 30.5769 55.8276 31.143L55.8305 31.1401ZM55.3469 30.1581C55.0078 30.111 54.6894 30.0225 54.4712 30.3056C54.4004 30.397 54.4358 30.7066 54.5036 30.7361C54.6894 30.8157 54.9253 30.854 55.1199 30.8128C55.4826 30.739 55.2909 30.4176 55.3469 30.1581Z" fill="black"></path><path d="M52.1193 31.2043H51.6445V28.7188C51.8097 28.7748 51.9453 28.819 52.075 28.8633C52.3345 28.819 52.6176 28.7363 52.9007 28.7304C53.2693 28.7215 53.5494 28.9574 53.57 29.326C53.6054 29.9452 53.5789 30.5674 53.5789 31.2043H53.1071C53.1071 30.709 53.1071 30.2315 53.1071 29.7508C53.1041 29.2142 52.8741 29.0579 52.367 29.2112C52.1724 29.2702 52.1104 29.3763 52.1134 29.568C52.1222 30.1076 52.1163 30.647 52.1163 31.2043H52.1193Z" fill="black"></path><path d="M47.1185 25.6008H46.6172V23.1269C46.7823 23.1711 46.915 23.2035 47.1303 23.2596C47.2718 23.2271 47.5165 23.1298 47.7701 23.1151C48.2567 23.0885 48.5692 23.3569 48.5928 23.8405C48.6223 24.4155 48.5987 24.9905 48.5987 25.592H48.1092C48.1092 25.1025 48.1122 24.6219 48.1092 24.1412C48.1033 23.6223 47.8792 23.463 47.3898 23.5957C47.1833 23.6517 47.1096 23.752 47.1155 23.9702C47.1303 24.5098 47.1214 25.0494 47.1214 25.5979L47.1185 25.6008Z" fill="black"></path><path d="M82.4054 26.557C82.5114 26.2474 82.6084 25.9584 82.6944 25.7107C82.5854 25.6105 82.4464 25.5426 82.4144 25.4424C82.1754 24.7052 81.9574 23.9621 81.7324 23.222C82.2374 23.0893 82.2484 23.1011 82.3634 23.5552C82.4994 24.0889 82.6444 24.6226 82.7854 25.1564C82.8154 25.1564 82.8474 25.1622 82.8774 25.1652C83.0214 24.6226 83.1924 24.083 83.3044 23.5346C83.3754 23.1837 83.5344 23.0805 83.9094 23.2043C83.7994 23.6142 83.7024 24.0329 83.5784 24.4428C83.3964 25.0502 83.1804 25.6488 83.0094 26.2592C82.9184 26.5806 82.7474 26.6749 82.4054 26.5629V26.557Z" fill="black"></path><path d="M76.9232 23.1671H77.3952V25.529C77.0212 25.5821 76.6672 25.6529 76.3132 25.6794C75.8322 25.7148 75.4842 25.4494 75.4582 24.9835C75.4222 24.3879 75.4492 23.7893 75.4492 23.17H75.9442C75.9442 23.6595 75.9442 24.1608 75.9442 24.6591C75.9442 25.1486 76.1242 25.2813 76.6082 25.1929C76.8442 25.1486 76.9382 25.0484 76.9292 24.7948C76.9092 24.2581 76.9232 23.7185 76.9232 23.1641V23.1671Z" fill="black"></path><path d="M67.2978 25.6029H66.8024C66.8024 25.1105 66.8201 24.621 66.7936 24.1315C66.7847 23.9516 66.7051 23.6686 66.5901 23.6302C66.3925 23.5624 66.1389 23.6302 65.9178 23.6803C65.8618 23.6951 65.8175 23.872 65.8175 23.9752C65.8087 24.5148 65.8116 25.0515 65.8116 25.6059H65.3398V23.185C65.3693 23.1732 65.3988 23.1525 65.4106 23.1614C65.7497 23.3412 66.0652 23.1525 66.3925 23.1171C66.9528 23.0552 67.2889 23.3707 67.2948 23.9398C67.3007 24.4912 67.2948 25.0427 67.2948 25.6059L67.2978 25.6029Z" fill="black"></path><path d="M57.3115 12.9382H56.707V8.58594H57.3115V12.9382Z" fill="black"></path><path d="M46.331 12.9382H45.7266V8.58594H46.331V12.9382Z" fill="black"></path><path d="M68.7139 31.2089H68.2185C68.2185 30.7047 68.2362 30.2122 68.2097 29.7227C68.1979 29.5458 68.1094 29.2657 67.9914 29.2274C67.7939 29.1625 67.5432 29.2362 67.3221 29.2893C67.272 29.3011 67.2336 29.4603 67.2307 29.5547C67.2218 30.0943 67.2277 30.6339 67.2277 31.1971H66.7441V28.7143C66.9181 28.7733 67.0597 28.8204 67.2543 28.8853C67.3132 28.8588 67.4371 28.788 67.5727 28.7497C68.2568 28.5609 68.708 28.9118 68.7139 29.6254C68.7168 30.1415 68.7139 30.6575 68.7139 31.2089Z" fill="black"></path><path d="M56.2966 8.60373C55.8218 9.83633 55.3559 11.0541 54.8871 12.2719C54.8576 12.3486 54.8134 12.4223 54.7986 12.5019C54.719 12.9 54.5008 13.0622 54.0762 12.9147C54.4801 11.8709 54.8841 10.8211 55.291 9.77143C55.3942 9.50893 55.524 9.25243 55.5948 8.98113C55.6891 8.61253 55.8896 8.47693 56.2995 8.60663L56.2966 8.60373Z" fill="black"></path><path d="M81.5871 25.1637C81.6351 25.2757 81.6791 25.3822 81.7441 25.5326C81.5521 25.5827 81.3781 25.6505 81.1981 25.6711C80.7881 25.7154 80.5291 25.4913 80.5081 25.0578C80.4851 24.5772 80.5021 24.0964 80.5021 23.5981C80.2931 23.5598 80.0451 23.5686 80.1781 23.2325C80.7381 23.2413 80.4551 22.7578 80.5791 22.4688H81.0071V23.1381H81.6461V23.5627H81.0181C81.0181 24.0581 80.9891 24.5267 81.0271 24.9897C81.0601 25.376 81.3601 25.1314 81.5871 25.1609V25.1637Z" fill="black"></path><path d="M49.1814 23.5899C49.0428 23.5722 48.9514 23.5604 48.7656 23.5397C48.8482 23.4041 48.9013 23.2979 48.972 23.2006C49.031 23.1181 49.1549 23.0561 49.1667 22.9736C49.2758 22.2128 49.55 22.0241 50.3668 22.1951C50.3579 22.3042 50.3491 22.4192 50.3402 22.5283C49.8842 22.6227 49.6758 22.8271 49.7151 23.1417C49.7888 23.1446 49.8684 23.1505 49.9481 23.1534C50.0188 23.1564 50.0866 23.1623 50.1869 23.1682C50.1958 23.2861 50.2046 23.3982 50.2164 23.5427C50.0365 23.5545 49.8802 23.5663 49.6856 23.581V25.5979H49.1843V23.5869L49.1814 23.5899Z" fill="black"></path><path d="M70.31 30.7752C70.351 30.8843 70.393 30.9904 70.434 31.0936C69.7145 31.5005 69.2191 31.2352 69.2103 30.4537C69.2073 30.0439 69.2103 29.6311 69.2103 29.2005C69.0953 29.1799 68.995 29.1593 68.8741 29.1386C68.8712 29.0413 68.8653 28.9411 68.8594 28.8261C68.9862 28.7995 69.0953 28.7789 69.2221 28.7523C69.2427 28.5312 69.2633 28.3248 69.2869 28.0859H69.7145V28.7199C69.9475 28.7317 70.151 28.7435 70.381 28.7553C70.39 28.8821 70.399 28.9941 70.407 29.1416C70.18 29.1534 69.9769 29.1652 69.7233 29.1799C69.7233 29.6546 69.6909 30.1264 69.7322 30.5894C69.7646 30.9639 70.074 30.7427 70.31 30.7693V30.7752Z" fill="black"></path><path d="M61.6926 23.1705C61.6985 23.3002 61.7044 23.4152 61.7103 23.5568H61.0232C61.0232 24.061 61.0056 24.5387 61.0321 25.0135C61.0439 25.2228 61.1383 25.2346 61.5924 25.1609C61.6218 25.2199 61.6602 25.2789 61.6867 25.3409C61.7044 25.3821 61.7133 25.4292 61.7309 25.497C61.4479 25.6799 61.15 25.7389 60.8404 25.6003C60.5485 25.4706 60.5161 25.1963 60.5161 24.9132C60.519 24.4797 60.5161 24.0462 60.5161 23.5921C60.3981 23.5744 60.2979 23.5597 60.1711 23.542C60.1622 23.4477 60.1563 23.3504 60.1445 23.2236C60.7402 23.2383 60.4866 22.7637 60.5957 22.4688H60.9879C61.0026 22.684 61.0144 22.8991 61.0291 23.135C61.2532 23.1439 61.4597 23.1558 61.6867 23.1646L61.6926 23.1705Z" fill="black"></path><path d="M75.107 23.1776C75.095 23.3191 75.086 23.443 75.077 23.5609C74.65 23.6228 74.131 23.3545 73.898 23.8941C73.735 24.2686 73.715 24.6991 73.986 25.0353C74.281 25.4009 74.679 25.1739 75.071 25.1031C75.115 25.2122 75.163 25.3272 75.207 25.4392C74.691 25.7636 73.998 25.7577 73.647 25.4392C73.284 25.109 73.178 24.1919 73.441 23.6435C73.676 23.1481 74.119 23.0183 75.11 23.1776H75.107Z" fill="black"></path><path d="M56.0605 37.9113V34.5586H56.6857V37.9113H56.0605Z" fill="black"></path><path d="M59.8242 34.5469H60.4376V37.9114H59.8242V34.5469Z" fill="black"></path><path d="M46.0645 25.6069H45.5957V22.207H46.0645V25.6069Z" fill="black"></path><path d="M54.1894 23.0391V23.5021C54.157 23.5256 54.1393 23.5492 54.1187 23.5522C53.5702 23.5915 53.296 23.8805 53.296 24.4191V25.5986H52.8301V23.1069C53.007 23.1836 53.1456 23.2455 53.293 23.3104C53.5348 23.2367 53.8356 23.1482 54.1865 23.0421L54.1894 23.0391Z" fill="black"></path><path d="M78.3717 23.3045C78.6367 23.2249 78.9257 23.1394 79.2597 23.0391V23.5315C78.6857 23.5944 78.3987 23.9119 78.3987 24.484C78.3987 24.8467 78.3987 25.2094 78.3987 25.5927H77.9297V23.0951C78.1097 23.1806 78.2507 23.2485 78.3687 23.3015L78.3717 23.3045Z" fill="black"></path><path d="M79.9263 25.6085H79.4863V23.1758H79.9263V25.6085Z" fill="black"></path><path d="M62.4688 25.6026H62.0117V23.1758H62.4688V25.6026Z" fill="black"></path><path d="M79.716 22.0547C79.836 22.2405 79.978 22.3614 79.957 22.4469C79.934 22.5531 79.777 22.6297 79.68 22.7211C79.601 22.6268 79.462 22.5324 79.459 22.4322C79.459 22.3319 79.589 22.2317 79.716 22.0547Z" fill="black"></path><path d="M62.6254 22.4407C62.4455 22.5764 62.3452 22.712 62.2538 22.7061C62.1536 22.7002 62.0622 22.5616 61.9648 22.482C62.0533 22.3788 62.1241 22.2284 62.2361 22.1901C62.3069 22.1665 62.4337 22.311 62.6254 22.4407Z" fill="black"></path></svg>