<svg width="80" height="80" viewBox="0 0 80 80" fill="none" xmlns="http://www.w3.org/2000/svg">
<g clip-path="url(#clip0_2043_17620)">
<path d="M73.4345 0H6.56445C2.98445 0 0.0644531 2.92 0.0644531 6.5V73.37C0.0644531 76.95 2.98445 79.87 6.56445 79.87H73.4345C77.0145 79.87 79.9345 76.95 79.9345 73.37V6.5C79.9345 2.92 77.0145 0 73.4345 0ZM6.56445 1H73.4345C76.4645 1 78.9345 3.47 78.9345 6.5V14.95C77.7945 13.06 75.7345 11.8 73.3745 11.8H6.80445C4.32445 11.8 2.16445 13.2 1.06445 15.25V6.5C1.06445 3.47 3.53445 1 6.56445 1ZM78.8745 26.83C77.7244 24.99 75.6845 23.75 73.3545 23.75H6.80445C4.48445 23.75 2.45445 24.97 1.30445 26.8V18.3C1.30445 15.27 3.77445 12.8 6.80445 12.8H73.3745C76.4044 12.8 78.8745 15.27 78.8745 18.3V26.83ZM40.2145 24.86C31.7645 24.86 24.9245 31.71 24.9245 40.15C24.9245 48.04 30.8945 54.53 38.5645 55.35H6.80445C3.77445 55.35 1.30445 52.88 1.30445 49.85V30.25C1.30445 27.22 3.77445 24.75 6.80445 24.75H73.3545C76.3845 24.75 78.8545 27.22 78.8545 30.25V49.85C78.8545 52.88 76.3845 55.35 73.3545 55.35H41.8545C49.5245 54.53 55.4945 48.04 55.4945 40.15C55.4945 31.7 48.6445 24.86 40.2045 24.86H40.2145ZM1.30445 53.3C2.45445 55.13 4.48445 56.35 6.80445 56.35H73.3545C75.6845 56.35 77.7244 55.12 78.8745 53.27V61.42C78.8745 64.45 76.4044 66.92 73.3745 66.92H6.80445C3.77445 66.92 1.30445 64.45 1.30445 61.42V53.3ZM73.4345 78.87H6.56445C3.53445 78.87 1.06445 76.4 1.06445 73.37V64.47C2.15445 66.52 4.31445 67.92 6.80445 67.92H73.3745C75.7345 67.92 77.7945 66.65 78.9345 64.77V73.37C78.9345 76.4 76.4645 78.87 73.4345 78.87Z" fill="url(#paint0_linear_2043_17620)"/>
<path d="M73.4345 0H6.56445C2.98445 0 0.0644531 2.92 0.0644531 6.5V73.37C0.0644531 76.95 2.98445 79.87 6.56445 79.87H73.4345C77.0145 79.87 79.9345 76.95 79.9345 73.37V6.5C79.9345 2.92 77.0145 0 73.4345 0ZM6.56445 1H73.4345C76.4645 1 78.9345 3.47 78.9345 6.5V14.95C77.7945 13.06 75.7345 11.8 73.3745 11.8H6.80445C4.32445 11.8 2.16445 13.2 1.06445 15.25V6.5C1.06445 3.47 3.53445 1 6.56445 1ZM78.8745 26.83C77.7244 24.99 75.6845 23.75 73.3545 23.75H6.80445C4.48445 23.75 2.45445 24.97 1.30445 26.8V18.3C1.30445 15.27 3.77445 12.8 6.80445 12.8H73.3745C76.4044 12.8 78.8745 15.27 78.8745 18.3V26.83ZM40.2145 24.86C31.7645 24.86 24.9245 31.71 24.9245 40.15C24.9245 48.04 30.8945 54.53 38.5645 55.35H6.80445C3.77445 55.35 1.30445 52.88 1.30445 49.85V30.25C1.30445 27.22 3.77445 24.75 6.80445 24.75H73.3545C76.3845 24.75 78.8545 27.22 78.8545 30.25V49.85C78.8545 52.88 76.3845 55.35 73.3545 55.35H41.8545C49.5245 54.53 55.4945 48.04 55.4945 40.15C55.4945 31.7 48.6445 24.86 40.2045 24.86H40.2145ZM1.30445 53.3C2.45445 55.13 4.48445 56.35 6.80445 56.35H73.3545C75.6845 56.35 77.7244 55.12 78.8745 53.27V61.42C78.8745 64.45 76.4044 66.92 73.3745 66.92H6.80445C3.77445 66.92 1.30445 64.45 1.30445 61.42V53.3ZM73.4345 78.87H6.56445C3.53445 78.87 1.06445 76.4 1.06445 73.37V64.47C2.15445 66.52 4.31445 67.92 6.80445 67.92H73.3745C75.7345 67.92 77.7945 66.65 78.9345 64.77V73.37C78.9345 76.4 76.4645 78.87 73.4345 78.87Z" fill="#54375F" fill-opacity="0.25"/>
</g>
<defs>
<linearGradient id="paint0_linear_2043_17620" x1="79.9345" y1="0" x2="0.0644626" y2="79.87" gradientUnits="userSpaceOnUse">
<stop stop-color="#DCCDC1"/>
<stop offset="1" stop-color="#A4ADD7"/>
</linearGradient>
<clipPath id="clip0_2043_17620">
<rect width="79.87" height="79.87" fill="white" transform="translate(0.0644531)"/>
</clipPath>
</defs>
</svg>
