<svg width="81" height="80" viewBox="0 0 81 80" fill="none" xmlns="http://www.w3.org/2000/svg">
<g clip-path="url(#clip0_850_1832)">
<path d="M51.2207 0.501831H6.09558C3.28164 0.501831 1.00049 2.78899 1.00049 5.61035V50.8544C1.00049 53.6757 3.28164 55.9629 6.09558 55.9629H51.2207C54.0346 55.9629 56.3158 53.6757 56.3158 50.8544V5.61035C56.3158 2.78899 54.0346 0.501831 51.2207 0.501831Z" stroke="url(#paint0_linear_850_1832)" stroke-miterlimit="10"/>
<path d="M51.2207 0.501831H6.09558C3.28164 0.501831 1.00049 2.78899 1.00049 5.61035V50.8544C1.00049 53.6757 3.28164 55.9629 6.09558 55.9629H51.2207C54.0346 55.9629 56.3158 53.6757 56.3158 50.8544V5.61035C56.3158 2.78899 54.0346 0.501831 51.2207 0.501831Z" stroke="#54375F" stroke-opacity="0.25" stroke-miterlimit="10"/>
<path d="M74.9043 24.0371H29.7792C26.9652 24.0371 24.6841 26.3243 24.6841 29.1457V74.3897C24.6841 77.211 26.9652 79.4982 29.7792 79.4982H74.9043C77.7182 79.4982 79.9994 77.211 79.9994 74.3897V29.1457C79.9994 26.3243 77.7182 24.0371 74.9043 24.0371Z" stroke="url(#paint1_linear_850_1832)" stroke-miterlimit="10"/>
<path d="M74.9043 24.0371H29.7792C26.9652 24.0371 24.6841 26.3243 24.6841 29.1457V74.3897C24.6841 77.211 26.9652 79.4982 29.7792 79.4982H74.9043C77.7182 79.4982 79.9994 77.211 79.9994 74.3897V29.1457C79.9994 26.3243 77.7182 24.0371 74.9043 24.0371Z" stroke="#54375F" stroke-opacity="0.25" stroke-miterlimit="10"/>
<path d="M40.5599 55.4209C49.1068 55.4209 56.0354 48.474 56.0354 39.9046C56.0354 31.3353 49.1068 24.3884 40.5599 24.3884C32.0131 24.3884 25.0845 31.3353 25.0845 39.9046C25.0845 48.474 32.0131 55.4209 40.5599 55.4209Z" fill="url(#paint2_linear_850_1832)"/>
<path d="M40.5599 55.4209C49.1068 55.4209 56.0354 48.474 56.0354 39.9046C56.0354 31.3353 49.1068 24.3884 40.5599 24.3884C32.0131 24.3884 25.0845 31.3353 25.0845 39.9046C25.0845 48.474 32.0131 55.4209 40.5599 55.4209Z" fill="#54375F" fill-opacity="0.25"/>
</g>
<defs>
<linearGradient id="paint0_linear_850_1832" x1="56.3158" y1="0.501831" x2="0.854958" y2="55.817" gradientUnits="userSpaceOnUse">
<stop stop-color="#DCCDC1"/>
<stop offset="1" stop-color="#A4ADD7"/>
</linearGradient>
<linearGradient id="paint1_linear_850_1832" x1="79.9994" y1="24.0371" x2="24.5386" y2="79.3523" gradientUnits="userSpaceOnUse">
<stop stop-color="#DCCDC1"/>
<stop offset="1" stop-color="#A4ADD7"/>
</linearGradient>
<linearGradient id="paint2_linear_850_1832" x1="56.0354" y1="24.3884" x2="25.003" y2="55.3392" gradientUnits="userSpaceOnUse">
<stop stop-color="#DCCDC1"/>
<stop offset="1" stop-color="#A4ADD7"/>
</linearGradient>
<clipPath id="clip0_850_1832">
<rect width="80" height="80" fill="white" transform="translate(0.5)"/>
</clipPath>
</defs>
</svg>
