<svg width="80" height="80" viewBox="0 0 80 80" fill="none" xmlns="http://www.w3.org/2000/svg">
<g clip-path="url(#clip0_2999_8276)">
<path fill-rule="evenodd" clip-rule="evenodd" d="M37.1262 0.987305H43.8521C44.9431 0.987305 45.8274 1.87179 45.8274 2.96286V9.68963C45.8274 10.7807 44.9431 11.6652 43.8521 11.6652H37.1262C36.0353 11.6652 35.1509 10.7807 35.1509 9.68963V2.96286C35.1509 1.87179 36.0353 0.987305 37.1262 0.987305ZM13.1879 40.4095C13.1879 39.8751 13.6292 39.434 14.1632 39.434H39.4941V50.3564H41.4941V39.434H66.8348C67.3689 39.434 67.8102 39.8751 67.8102 40.4095V50.3564H69.8102V40.4095C69.8102 38.7708 68.4737 37.434 66.8348 37.434H41.4941V30.6108H39.4941V37.434H14.1632C12.5244 37.434 11.1879 38.7708 11.1879 40.4095V50.3564H13.1879V40.4095ZM51.3188 13.7988H29.6694C28.5785 13.7988 27.6941 14.6833 27.6941 15.7743V24.6248C27.6941 25.7159 28.5785 26.6004 29.6694 26.6004H51.3188C52.4097 26.6004 53.2941 25.7159 53.2941 24.6248V15.7743C53.2941 14.6833 52.4097 13.7988 51.3188 13.7988ZM37.2373 58.7723C37.2373 58.2334 37.6741 57.7967 38.2126 57.7967H42.7756C43.3141 57.7967 43.7509 58.2334 43.7509 58.7723V63.3358C43.7509 63.8747 43.3141 64.3114 42.7756 64.3114H38.2126C37.6741 64.3114 37.2373 63.8747 37.2373 63.3358V58.7723ZM38.2126 55.7967C36.5693 55.7967 35.2373 57.1291 35.2373 58.7723V63.3358C35.2373 64.9791 36.5693 66.3114 38.2126 66.3114H42.7756C44.4189 66.3114 45.7509 64.9791 45.7509 63.3358V58.7723C45.7509 57.1291 44.4189 55.7967 42.7756 55.7967H38.2126ZM32.2571 69.7982C31.7185 69.7982 31.2818 70.2349 31.2818 70.7738V77.0363C31.2818 77.5752 31.7185 78.0119 32.2571 78.0119H48.7213C49.2598 78.0119 49.6966 77.5752 49.6966 77.0363V70.7738C49.6966 70.2349 49.2598 69.7982 48.7213 69.7982H32.2571ZM29.2818 70.7738C29.2818 69.1306 30.6137 67.7982 32.2571 67.7982H48.7213C50.3646 67.7982 51.6966 69.1306 51.6966 70.7738V77.0363C51.6966 78.6796 50.3646 80.0119 48.7213 80.0119H32.2571C30.6137 80.0119 29.2818 78.6796 29.2818 77.0363V70.7738ZM65.5435 58.7723C65.5435 58.2334 65.9803 57.7967 66.5188 57.7967H71.0818C71.6203 57.7967 72.0571 58.2334 72.0571 58.7723V63.3358C72.0571 63.8747 71.6203 64.3114 71.0818 64.3114H66.5188C65.9803 64.3114 65.5435 63.8747 65.5435 63.3358V58.7723ZM66.5188 55.7967C64.8755 55.7967 63.5435 57.1291 63.5435 58.7723V63.3358C63.5435 64.9791 64.8755 66.3114 66.5188 66.3114H71.0818C72.7251 66.3114 74.0571 64.9791 74.0571 63.3358V58.7723C74.0571 57.1291 72.7251 55.7967 71.0818 55.7967H66.5188ZM60.5731 69.7982C60.0346 69.7982 59.5978 70.2349 59.5978 70.7738V77.0363C59.5978 77.5752 60.0346 78.0119 60.5731 78.0119H77.0373C77.5758 78.0119 78.0126 77.5752 78.0126 77.0363V70.7738C78.0126 70.2349 77.5758 69.7982 77.0373 69.7982H60.5731ZM57.5978 70.7738C57.5978 69.1306 58.9298 67.7982 60.5731 67.7982H77.0373C78.6806 67.7982 80.0126 69.1306 80.0126 70.7738V77.0363C80.0126 78.6796 78.6806 80.0119 77.0373 80.0119H60.5731C58.9298 80.0119 57.5978 78.6796 57.5978 77.0363V70.7738ZM8.93114 58.7723C8.93114 58.2334 9.36792 57.7967 9.90645 57.7967H14.4694C15.0079 57.7967 15.4447 58.2334 15.4447 58.7723V63.3358C15.4447 63.8747 15.0079 64.3114 14.4694 64.3114H9.90645C9.36792 64.3114 8.93114 63.8747 8.93114 63.3358V58.7723ZM9.90645 55.7967C8.26311 55.7967 6.93114 57.1291 6.93114 58.7723V63.3358C6.93114 64.9791 8.26311 66.3114 9.90645 66.3114H14.4694C16.1128 66.3114 17.4447 64.9791 17.4447 63.3358V58.7723C17.4447 57.1291 16.1127 55.7967 14.4694 55.7967H9.90645ZM3.95089 69.7982C3.41236 69.7982 2.97559 70.2349 2.97559 70.7738V77.0363C2.97559 77.5752 3.41236 78.0119 3.95089 78.0119H20.4151C20.9536 78.0119 21.3904 77.5752 21.3904 77.0363V70.7738C21.3904 70.2349 20.9536 69.7982 20.4151 69.7982H3.95089ZM0.975586 70.7738C0.975586 69.1306 2.30756 67.7982 3.95089 67.7982H20.4151C22.0584 67.7982 23.3904 69.1306 23.3904 70.7738V77.0363C23.3904 78.6796 22.0584 80.0119 20.4151 80.0119H3.95089C2.30756 80.0119 0.975586 78.6796 0.975586 77.0363V70.7738Z" fill="url(#paint0_linear_2999_8276)"/>
<path fill-rule="evenodd" clip-rule="evenodd" d="M37.1262 0.987305H43.8521C44.9431 0.987305 45.8274 1.87179 45.8274 2.96286V9.68963C45.8274 10.7807 44.9431 11.6652 43.8521 11.6652H37.1262C36.0353 11.6652 35.1509 10.7807 35.1509 9.68963V2.96286C35.1509 1.87179 36.0353 0.987305 37.1262 0.987305ZM13.1879 40.4095C13.1879 39.8751 13.6292 39.434 14.1632 39.434H39.4941V50.3564H41.4941V39.434H66.8348C67.3689 39.434 67.8102 39.8751 67.8102 40.4095V50.3564H69.8102V40.4095C69.8102 38.7708 68.4737 37.434 66.8348 37.434H41.4941V30.6108H39.4941V37.434H14.1632C12.5244 37.434 11.1879 38.7708 11.1879 40.4095V50.3564H13.1879V40.4095ZM51.3188 13.7988H29.6694C28.5785 13.7988 27.6941 14.6833 27.6941 15.7743V24.6248C27.6941 25.7159 28.5785 26.6004 29.6694 26.6004H51.3188C52.4097 26.6004 53.2941 25.7159 53.2941 24.6248V15.7743C53.2941 14.6833 52.4097 13.7988 51.3188 13.7988ZM37.2373 58.7723C37.2373 58.2334 37.6741 57.7967 38.2126 57.7967H42.7756C43.3141 57.7967 43.7509 58.2334 43.7509 58.7723V63.3358C43.7509 63.8747 43.3141 64.3114 42.7756 64.3114H38.2126C37.6741 64.3114 37.2373 63.8747 37.2373 63.3358V58.7723ZM38.2126 55.7967C36.5693 55.7967 35.2373 57.1291 35.2373 58.7723V63.3358C35.2373 64.9791 36.5693 66.3114 38.2126 66.3114H42.7756C44.4189 66.3114 45.7509 64.9791 45.7509 63.3358V58.7723C45.7509 57.1291 44.4189 55.7967 42.7756 55.7967H38.2126ZM32.2571 69.7982C31.7185 69.7982 31.2818 70.2349 31.2818 70.7738V77.0363C31.2818 77.5752 31.7185 78.0119 32.2571 78.0119H48.7213C49.2598 78.0119 49.6966 77.5752 49.6966 77.0363V70.7738C49.6966 70.2349 49.2598 69.7982 48.7213 69.7982H32.2571ZM29.2818 70.7738C29.2818 69.1306 30.6137 67.7982 32.2571 67.7982H48.7213C50.3646 67.7982 51.6966 69.1306 51.6966 70.7738V77.0363C51.6966 78.6796 50.3646 80.0119 48.7213 80.0119H32.2571C30.6137 80.0119 29.2818 78.6796 29.2818 77.0363V70.7738ZM65.5435 58.7723C65.5435 58.2334 65.9803 57.7967 66.5188 57.7967H71.0818C71.6203 57.7967 72.0571 58.2334 72.0571 58.7723V63.3358C72.0571 63.8747 71.6203 64.3114 71.0818 64.3114H66.5188C65.9803 64.3114 65.5435 63.8747 65.5435 63.3358V58.7723ZM66.5188 55.7967C64.8755 55.7967 63.5435 57.1291 63.5435 58.7723V63.3358C63.5435 64.9791 64.8755 66.3114 66.5188 66.3114H71.0818C72.7251 66.3114 74.0571 64.9791 74.0571 63.3358V58.7723C74.0571 57.1291 72.7251 55.7967 71.0818 55.7967H66.5188ZM60.5731 69.7982C60.0346 69.7982 59.5978 70.2349 59.5978 70.7738V77.0363C59.5978 77.5752 60.0346 78.0119 60.5731 78.0119H77.0373C77.5758 78.0119 78.0126 77.5752 78.0126 77.0363V70.7738C78.0126 70.2349 77.5758 69.7982 77.0373 69.7982H60.5731ZM57.5978 70.7738C57.5978 69.1306 58.9298 67.7982 60.5731 67.7982H77.0373C78.6806 67.7982 80.0126 69.1306 80.0126 70.7738V77.0363C80.0126 78.6796 78.6806 80.0119 77.0373 80.0119H60.5731C58.9298 80.0119 57.5978 78.6796 57.5978 77.0363V70.7738ZM8.93114 58.7723C8.93114 58.2334 9.36792 57.7967 9.90645 57.7967H14.4694C15.0079 57.7967 15.4447 58.2334 15.4447 58.7723V63.3358C15.4447 63.8747 15.0079 64.3114 14.4694 64.3114H9.90645C9.36792 64.3114 8.93114 63.8747 8.93114 63.3358V58.7723ZM9.90645 55.7967C8.26311 55.7967 6.93114 57.1291 6.93114 58.7723V63.3358C6.93114 64.9791 8.26311 66.3114 9.90645 66.3114H14.4694C16.1128 66.3114 17.4447 64.9791 17.4447 63.3358V58.7723C17.4447 57.1291 16.1127 55.7967 14.4694 55.7967H9.90645ZM3.95089 69.7982C3.41236 69.7982 2.97559 70.2349 2.97559 70.7738V77.0363C2.97559 77.5752 3.41236 78.0119 3.95089 78.0119H20.4151C20.9536 78.0119 21.3904 77.5752 21.3904 77.0363V70.7738C21.3904 70.2349 20.9536 69.7982 20.4151 69.7982H3.95089ZM0.975586 70.7738C0.975586 69.1306 2.30756 67.7982 3.95089 67.7982H20.4151C22.0584 67.7982 23.3904 69.1306 23.3904 70.7738V77.0363C23.3904 78.6796 22.0584 80.0119 20.4151 80.0119H3.95089C2.30756 80.0119 0.975586 78.6796 0.975586 77.0363V70.7738Z" fill="#54375F" fill-opacity="0.25"/>
</g>
<defs>
<linearGradient id="paint0_linear_2999_8276" x1="80.0126" y1="0.987305" x2="0.988063" y2="80.0243" gradientUnits="userSpaceOnUse">
<stop stop-color="#DCCDC1"/>
<stop offset="1" stop-color="#A4ADD7"/>
</linearGradient>
<clipPath id="clip0_2999_8276">
<rect width="80" height="80" fill="white"/>
</clipPath>
</defs>
</svg>
